<?xml version="1.0" encoding="UTF-8"?><svg id="Layer_2" xmlns="http://www.w3.org/2000/svg" viewBox="0 0 1997 344.13"><defs><style>.cls-1{letter-spacing:-.02em;}.cls-2{letter-spacing:-.02em;}.cls-3{font-family:ArialMT, Arial;font-size:178.28px;}.cls-4{letter-spacing:-.07em;}.cls-5{letter-spacing:-.07em;}.cls-6{letter-spacing:0em;}.cls-7{stroke:#fff;stroke-miterlimit:10;stroke-width:2px;}</style></defs><g id="Logo"><g><text class="cls-3" transform="translate(418.08 219.62)"><tspan x="0" y="0">B</tspan><tspan class="cls-4" x="118.91" y="0">A</tspan><tspan class="cls-2" x="224.59" y="0">Y</tspan><tspan x="340.28" y="0"> </tspan><tspan class="cls-5" x="389.81" y="0">V</tspan><tspan class="cls-6" x="495.49" y="0">ALLE</tspan><tspan class="cls-1" x="931.61" y="0">Y </tspan><tspan x="1093.61" y="0">TECH</tspan></text><g><path d="M179.69,137.05c-1.16-1.35-2.57-1.87-4.36-1.79-2.55,.11-5.06-.25-7.45-1.29-1.24-.54-1.86-1.2-1.9-2.72-.08-3.47-1.26-4.49-4.8-4.64-1.33-.06-2.3-.65-3.02-1.76-.92-1.42-2-2.69-3.29-3.74-2.61,1.83-4.34,1.92-6.17,.37-2.87-2.42-5.14-2.35-7.76,.29-.96,.97-2,1.71-3.41,1.85-3.04,.3-4.45-.92-4.54-3.93-.04-1.15-.2-2.29-.3-3.45-1.39-.3-2.67-.58-3.97-.86,.15-1.65,2.14-2.97,.69-4.83-1.63,.74-2.97,1.87-4.47,2.75-1.44,.85-2.95,.82-4.39,.02-1.04-.58-1.56-1.52-1.47-2.78,.27-3.83,3.09-7.26,6.83-8.07,2.97-.65,6-.42,8.99-.39,.53,3.13,1.28,3.88,3.55,3.59-.02-.36,.04-.74-.06-1.08-.59-2.02,.24-3.52,1.73-4.74,.86-.7,1.81-1.3,2.73-1.92,1.26-.85,2.37-1.83,2.89-3.29,.59-1.68,1.69-2.91,3.1-3.93,2.28-1.63,4.84-2.89,6.83-4.92,1.2-1.22,2.54-2,4.31-1.98,.4,0,.98-.01,1.08-.71-.23-.12-.53-.17-.68-.35-.48-.56-2.03-.61-1.3-1.71,.54-.81,1.71-.51,2.6-.08,.14,.07,.25,.19,.37,.3,.91,.82,1.89,.82,2.94,.31,.63-.31,1.21-.85,2-.68,.52,1.13-.73,1.62-.77,2.66,1.39,1.37,3.39,1.16,5.08,1.98,1.08-3.05-2.38-2.51-2.87-4.24,.62-.3,1.22-.51,1.74-.85,1.26-.82,1.42-2.49,.24-3.11-1.73-.91-2.43-2.26-2.31-4.15,.03-.41,.1-.87-.45-1.24-1.6,.21-3.03,1.35-4.78,1.56-.04-.32-.07-.53-.08-.74q-.09-2.73-2.84-3.34c-.05-.01-.1-.02-.16-.04-3.36-.77-4.56,.19-4.42,3.61,.06,1.32-.18,2.71-1.52,3.01-1.79,.4-2.74,1.6-3.81,2.82-.43,.5-.82,1.12-1.58,1.25-.38-3.66-.5-3.78-4.35-4.59-.36-.07-.72-.21-1.03-.39-1.41-.81-1.82-3.34-.61-3.98,2.85-1.5,5.73-2.93,8.6-4.38,.68,.72,.44,1.73,1.17,2.45,1.09-.56,2.2-1.13,3.14-1.62,.18-.67-.45-.99-.18-1.6,1.54-.22,2.74-1.23,4.06-2.01,2.5-1.48,5.41-1.05,6.58,.94-1.66,.91-3.32,1.82-5.24,2.88,2.59,.6,4.87,1.13,7.2,1.68,.47-1.62,1.47-2.51,3.03-2.49,1.09,.01,1.64-.54,2.14-1.48-.71-.26-.85-.98-1.22-1.53-.55-.83-.75-1.99-1.66-2.49-2.78-1.55-5.61-3.01-8.97-2.74-3.42,.28-4.71,1.49-5.17,4.9-.02,.13-.12,.25-.19,.4-.94-.27-2.04-.22-2.49-1.25-.77-1.74,1.54-1.86,1.8-3.09-2.99-1.41-5.3-.92-6.11,1.26,.3,.52,1.34,.31,1.26,1.2-.07,.88-.87,1-1.48,1.25-1.58,.63-3.24,.9-4.93,1.12-2.09,.27-2.24,.2-2.05-2.1,2.55,.29,4.56-.58,5.88-2.96q-1.29-.24-2.48,.43c-2.15,1.21-3.38,1.07-5.12-.65-.7-.69-1.49-1.18-2.45-1.41-3.01-.74-4.77,1.3-6.79,2.82,.69,.83,1.4,.46,2.07,.43,.72-.03,1.5-.05,1.39,1-.11,1.14,.48,1.33,1.44,1.3,.97-.03,2.04-.11,2.48,1.22-1.78,.19-3.47,.22-4.96-.79-1.4-.95-2.95-1.38-4.58-1.69-.97-.18-2-.14-2.81-.79-10.81,6.94-21.8,20.27-26.52,32.14-.69,1.75-.09,3.62,1.64,4.42,1.17,.54,1.53,1.29,1.44,2.49-.22,2.87,.66,5.42,2.32,7.75,.9,1.26,2.06,1.73,3.6,1.47,0-2-1.32-3.34-2.11-4.92-.8-1.6-1.24-3.31-1.03-5.2,.71,.18,1.28,.39,1.36,1.06,.34,3.05,2.19,5.35,3.85,7.74,.53,.77,.82,1.52,.68,2.52-.33,2.43,1.2,4.56,3.58,5.31,2.43,.77,4.86,1.44,7.37,.24,.33,2.1,.33,2.09,2.28,2.5,1.91,.41,3.77,1.07,4.88,2.74,1.58,2.38,3.56,3.6,6.49,3.49,1.66-.06,2.2,.84,2.64,3.12,.25,1.31-.42,1.93-1.51,2.43-1.52,.7-2.2,2.04-2.5,3.63-.63,3.23-.51,6.17,2.28,8.56,1.65,1.41,2.28,3.7,3.6,5.31,1.34,1.62,3.82,2.17,5.59,3.54,.71,.55,.96,1.17,.96,2.04,0,3.03,.07,6.05,.11,9.08,0,.48-.1,1.01,.23,1.38,1.43,1.62,1.11,3.44,.56,5.23-.43,1.4-.03,2.46,.91,3.46,1.15,1.23,1.67,2.62,1.2,4.36-.47,1.75-.19,3.5,.63,5.11,1.35,2.63,3.24,4.86,5.48,6.76,1.32,1.12,2.9,1.77,4.71,1.41,.65-.13,1.54-.14,1.64-.98,.08-.68-.38-1.35-1.02-1.69-1.78-.96-2.14-2.3-1.4-4.13,.43-1.06,.43-2.02-1.1-2.33-.6-.13-1.36-.28-1.78-.99,.69-.98,1.38-1.96,2.14-3.04-.88-.44-1.61-.8-2.52-1.25,1.33-1.06,2.8-1.5,4.24-1.92,2.22-.65,4.02-1.73,5.24-3.82,.87-1.51,1.97-2.9,3.1-4.24,1.17-1.38,1.48-2.76,.98-4.54-.89-3.17,.03-4.16,3.35-4.41,2.93-.22,4.46-.64,5.01-4.15,.07-.47,.14-.94,.18-1.41,.25-3.43,.77-6.72,3.45-9.3,.82-.79,.83-2.02-.13-2.99-.75-.75-1.53-1.48-2.22-2.28Z"/><path d="M203.52,95.03c.8,.02,1.59-.02,2.39,.01,1.5,.06,2.65-.47,3.47-1.79,.75-1.22,1.64-2.34,2.43-3.54,.51-.78,1.34-1.34,2.09-1.24,1.35,.19,2.28-.52,3.37-1.1,2.29,1.68,4.57,3.34,7.1,5.2-1.23,.25-2.09,.42-3.17,.63,.83,1.22,1.73,1.71,2.88,1.46,1.13-.24,1.3-1.23,1.48-2.2,.24-1.25,.02-2.18-1.32-2.64-.59-.2-1.17-.53-1.68-.91-.98-.74-1.93-1.54-1.51-3,3.12-.4,5.79,1.31,6.59,4.44,.46,1.8,1.6,3.03,2.7,4.43,.88-.82,.85-1.89,1.17-2.81,.39-1.1,.99-1.82,2.2-1.99,.39,1.67,.35,3.49,1.88,4.62,1.45,1.07,3.27,.25,5.16,1.18-4.72-11.86-11.66-21.57-21.33-29.85,.15,1.08-.45,1.23-.88,1.5-1.08,.67-2.19,1.29-3.26,1.97-1.74,1.1-1.85,2.3-.38,3.74,1.39,1.35,2.83,2.59,4.99,1.3,.17,1.25,.3,2.22,.42,3.13-.16,.1-.21,.15-.25,.15-.31-.04-.61-.1-.92-.13-2.79-.28-5.46-.33-6.84,2.86-.4,.93-1.39,1.25-2.35,1.46-.41,.09-.84,.12-1.23,.27-1.83,.7-2.25,2.39-.89,3.75,.51,.51,.4,1.02,.28,1.73-1.9,0-3.8-.03-5.71,0-1.72,.04-2.38,.75-2.4,2.45,0,.53-.03,1.07,0,1.59,.19,2.45,1.05,3.25,3.52,3.31Z"/><path d="M202.52,79.85c1.18-.58,2.18-1.42,2.86-2.55-.33-.89-.89-1.39-1.77-1.41-1.53-.04-2.43,.83-2.96,2.16-.24,.61-.67,1.37-.17,1.91,.59,.64,1.42,.19,2.04-.11Z"/><path d="M164.9,84.9c-1.86,.07-3.13,.97-4.63,1.48,1.34,1.4,2.56,1.01,4.63-1.48Z"/><path d="M172.07,0C77.04,0,0,77.04,0,172.07s77.04,172.07,172.07,172.07,172.07-77.04,172.07-172.07S267.1,0,172.07,0Zm20.5,284.75c-3.55,3.19-7.13,6.36-10.69,9.55-2.18,1.95-4.67,3.11-7.65,2.96-3.87-.2-7.75,.25-11.6-.28-1.61-.22-3.03-.86-4.3-1.9-4.43-3.64-8.58-7.6-12.87-11.41-.21-.19-.36-.38-.26-.95h48.97c-.3,.86-.96,1.46-1.6,2.04Zm4.03-11.09c-1.2,.21-2.43,.32-3.64,.33-7.81,.03-15.62,.01-23.44,.01s-15.2,.01-22.8-.01c-1.16,0-2.34-.08-3.49-.24-3.68-.5-5.97-3.33-5.72-6.99,.24-3.5,2.93-6.05,6.46-6.22,5.26-.25,10.52-.11,15.78-.13,11.05-.03,22.11-.01,33.16,0,1.53,0,3.08,0,4.56,.51,2.86,.98,4.65,3.69,4.41,6.65-.27,3.33-2.13,5.52-5.28,6.08Zm6.47-28.31c-.28,3.6-2.92,6-6.75,6.01-8.82,.03-17.65,0-26.47,0-8.93,0-17.86,.09-26.79-.03-5.77-.08-7.79-4.75-6.15-9.44,.7-2.01,2.4-3.04,4.37-3.6,1.08-.31,2.19-.35,3.32-.35,16.74,0,33.48,0,50.23,.01,.85,0,1.71,.04,2.54,.19,3.75,.64,5.99,3.51,5.7,7.22Zm36.23-91.14c-4.16,9.63-9.67,18.51-15.07,27.45-4.63,7.68-9.39,15.28-12.93,23.55-3.04,7.11-4.6,11.88-5.37,22.77h-72.22c-.4-2.76-3.5-17.9-5.39-22.43-1.63-3.89-3.58-7.66-5.72-11.34-5.23-8.99-10.68-17.85-15.94-26.82-7.21-12.3-12.03-25.45-13.51-39.7-2.05-19.71,3.04-37.4,15.32-52.97,11.22-14.21,26.06-22.38,43.63-25.94,6.19-1.25,12.45-1.96,18.76-1.92,19.81,.14,37.24,6.72,52.21,19.71,13.64,11.83,20.97,26.9,22.88,44.75,.4,3.79,.7,7.59,.61,11.41-.25,10.99-2.91,21.42-7.26,31.48Z"/><path class="cls-7" d="M243,102.62c-.28-1.11-.8-1.71-1.98-1.49-3,.56-5.72,.14-8.24-1.78-1.14-.87-2.76-.83-4.14-.57-.81,.16-.42,1.3-.65,1.97-.03,.09-.14,.15-.23,.26-.13,0-.3,.06-.44,.02-2.39-.69-4.77-1.45-7.18-2.07-.94-.24-1.14-.71-1.13-1.57,.01-.94,.2-1.9-.2-2.95-2.03,.26-4.07,.4-6.11,.45-.81,.02-1.62,.16-2.39,.44-1.8,.66-3.59,1.08-5.54,1.08-1.29,0-2.6,.46-3.86,.86-1.8,.56-2.67,1.7-2.53,3.56,.11,1.42-.5,2.34-1.53,3.09-1.41,1.03-2.87,2-4.28,3.04-2.68,1.97-2.72,2.58-.37,4.89,.07,.07,.09,.18,.13,.28-2.34,3.52-2.33,8.5,1.33,11.48,1.23,1,2.29,2.21,3.21,3.52,.75,1.06,1.92,1.36,3.08,1.27,2.63-.19,5.24-.48,7.78-1.35,1.8-.62,3.75-1.22,5.46,.53,.53,.55,1.47,.51,2.24,.71,.99,.25,2.14-.07,2.92,.68-.1,.89-.19,1.67-.26,2.45-.32,3.62,1.24,6.57,3.3,9.37,1.86,2.52,1.86,3.83,.16,6.35-1.04,1.53-.99,3.99,.15,5.45,.78,1.01,1.16,2.11,1.12,3.39-.03,1.11-.25,2.28,.27,3.31,1.36,2.7,2.75,5.37,3.02,8.46,.02,.25,.06,.62,.39,.6,.7-.05,.78,.4,.85,.9,.03,.2,.29,.28,.42,.12,3.55-4.15,6.56-8.43,9.03-13.07,6.39-12,9.4-24.73,8.61-38.37-.3-5.21-1.14-10.29-2.41-15.33Z"/><path d="M205.35,75.96c.81,.55,1.61,1.1,2.04,2.05-2.08,.84-2.22,1.08-1.83,3.02,3.11,.66,4.8,.18,6.07-1.86-2.86-1.38-3.58-4.17-4.28-7.08-.79,.45-1.46,.76-2.05,1.18-1.47,1.02-1.44,1.67,.06,2.7Z"/></g></g></g></svg>