<?xml version="1.0" encoding="utf-8"?>
<!-- Generator: Adobe Illustrator 26.2.1, SVG Export Plug-In . SVG Version: 6.00 Build 0)  -->
<svg version="1.1" id="Layer_1" xmlns="http://www.w3.org/2000/svg" xmlns:xlink="http://www.w3.org/1999/xlink" x="0px" y="0px"
	 viewBox="0 0 302 123.5" style="enable-background:new 0 0 302 123.5;" xml:space="preserve">
<style type="text/css">
	.st0{fill:#231F20;}
</style>
<g id="a">
</g>
<g id="b">
	<g id="c">
		<g id="d" transform="matrix(1.25,0,0,-1.25,-659.20439,-303.44392)">
			<g id="e">
				<g id="f">
					<g id="g">
						<path id="h" class="st0" d="M598.2-252.2h2.2v2.6H593v-2.6h2.2v-10.3c0-3.4-1.5-5.3-4.4-5.3s-4.3,1.9-4.3,5.5v10.1h2.2v2.6
							h-7.5v-2.6h2.2v-9.8c0-5.4,2.5-8.5,7.3-8.5c4.8,0,7.5,3,7.5,8.4L598.2-252.2"/>
						<path id="i" class="st0" d="M610.2-270.1h6.6v2.4H615v7.2c0,4.3-1.7,6.1-4.8,6.1c-1.8,0-3.1-0.7-4.1-1.9v1.6h-4.8v-2.4h1.8
							v-10.5h-1.8v-2.4h6.6v2.4h-1.8v8.9c0.9,1.1,1.9,1.9,3.3,1.9c1.6,0,2.5-0.8,2.5-3.8v-7h-1.8L610.2-270.1"/>
						<path id="j" class="st0" d="M618.5-270.1h6.8v2.4h-1.9v13h-4.9v-2.4h1.9v-10.5h-1.9L618.5-270.1L618.5-270.1z M621.6-252.2
							c1.1,0,1.9,0.8,1.9,1.9s-0.8,2-1.9,2c-1.1,0-2-0.9-2-2S620.5-252.2,621.6-252.2"/>
						<path id="k" class="st0" d="M634.8-269.8L634.8-269.8l-0.8,2c-0.3-0.1-0.6-0.1-0.9-0.1c-1.1,0-1.4,0.4-1.4,1.8v8.9h3.5v2.4
							h-3.5v6l-3-1.6v-4.4h-2.1v-2.4h2.1v-9.2c0-2.8,1.3-4.1,3.3-4.1C633.1-270.5,634.1-270.2,634.8-269.8L634.8-269.8z"/>
						<path id="l" class="st0" d="M642.8-256.9c2.3,0,3.1-1.9,3.3-4.2h-6.5C639.8-258.4,640.8-256.9,642.8-256.9 M649.1-263.5
							c0,0.3,0.1,0.8,0.1,1.4c0,4.2-2,7.7-6.2,7.7c-3.8,0-6.4-2.9-6.4-8s2.8-8,6.6-8c2.2,0,3.9,0.6,5.6,2l-1.3,2.1
							c-1.4-1-2.4-1.5-4.1-1.5c-2.4,0-3.6,1.6-3.8,4.4H649.1"/>
						<path id="m" class="st0" d="M660.9-258.9v-7.1c-1.2-1.4-2-2-3.2-2c-2,0-3.2,1.6-3.2,5.9c0,3.4,1.1,5.2,3.1,5.2
							C658.9-256.9,660.2-258,660.9-258.9L660.9-258.9z M660.8-270.1h4.6v2.4h-1.6v19.3H659v-2.4h1.8v-5.4c-1,1-2.1,1.8-4,1.8
							c-2.9,0-5.5-2.5-5.5-7.8c0-5.9,2.3-8.3,5.6-8.3c1.6,0,2.8,0.7,3.8,1.9V-270.1"/>
					</g>
					<g id="n">
						<path id="o" class="st0" d="M682.2-270.5c3.8,0,6.5,2,6.5,6.1c0,3.7-2.1,5.1-6.2,6.3c-3,0.8-4.1,1.8-4.1,3.5
							c0,1.6,0.8,2.7,3,2.7c2.5,0,3.9-1.6,4.3-4h2.5v6.3h-2.6v-1.7c-0.6,1.1-2,2-4.3,2c-3.5,0-5.9-2.1-5.9-5.6c0-3.7,2-5,6.1-6.1
							c3.7-1.1,4.3-2,4.3-3.8c0-2-1.2-3.1-3.5-3.1c-2.5,0-3.8,1.5-4.5,4h-2.5v-6.3h2.6v1.7C678.7-269.7,680.2-270.5,682.2-270.5"/>
						<path id="p" class="st0" d="M698.6-269.8L698.6-269.8l-0.8,2c-0.3-0.1-0.6-0.1-0.9-0.1c-1.1,0-1.4,0.4-1.4,1.8v8.9h3.5v2.4
							h-3.5v6l-3-1.6v-4.4h-2.1v-2.4h2.1v-9.2c0-2.8,1.3-4.1,3.3-4.1C696.9-270.5,697.9-270.2,698.6-269.8L698.6-269.8z"/>
						<path id="q" class="st0" d="M709.6-263.4v-2.6c-0.8-1.1-2.1-1.9-3.6-1.9c-1.8,0-2.6,0.8-2.6,2.7c0,1.6,1.2,2.6,2.8,2.6
							C708-262.7,708.8-263,709.6-263.4L709.6-263.4z M709.6-270.1h4.6v2.4h-1.7v8.1c0,3.5-2.3,5.2-5.5,5.2c-2.1,0-3.7-0.5-5.1-1.4
							l1.1-2.1c1.1,0.7,2.3,1,3.8,1c1.8,0,2.8-0.9,2.8-2.6v-1.4c-0.8,0.4-1.9,0.7-3.4,0.7c-3.3,0-5.7-1.6-5.7-5.1
							c0-3.8,2.3-5.1,4.9-5.1c1.8,0,3.2,0.8,4.2,2L709.6-270.1"/>
						<path id="r" class="st0" d="M723.2-269.8L723.2-269.8l-0.8,2c-0.3-0.1-0.6-0.1-0.9-0.1c-1.1,0-1.4,0.4-1.4,1.8v8.9h3.5v2.4
							H720v6l-3-1.6v-4.4h-2.1v-2.4h2.1v-9.2c0-2.8,1.3-4.1,3.3-4.1C721.5-270.5,722.5-270.2,723.2-269.8L723.2-269.8z"/>
						<path id="s" class="st0" d="M731.2-256.9c2.3,0,3.1-1.9,3.3-4.2H728C728.2-258.4,729.2-256.9,731.2-256.9 M737.5-263.5
							c0,0.3,0.1,0.8,0.1,1.4c0,4.2-2,7.7-6.2,7.7c-3.8,0-6.4-2.9-6.4-8s2.8-8,6.6-8c2.2,0,3.9,0.6,5.6,2l-1.3,2.1
							c-1.4-1-2.4-1.5-4.1-1.5c-2.4,0-3.6,1.6-3.8,4.4H737.5"/>
						<path id="t" class="st0" d="M746-270.4c3,0,4.8,2,4.8,4.4c0,2.9-1.4,4-5,5.1c-2.3,0.7-2.7,1.4-2.7,2.3c0,1,0.6,1.7,1.9,1.7
							c1.7,0,2.6-0.9,3.3-2.7h2.1v4.8h-2.3v-0.9c-0.8,0.8-1.9,1.2-3.2,1.2c-3.1,0-4.7-2.1-4.7-4.3c0-2.8,1.3-3.9,5-5
							c2.2-0.6,2.7-1.3,2.7-2.4c0-1.1-0.7-1.8-1.9-1.8c-1.8,0-2.7,0.9-3.6,2.6h-2.1v-4.8h2.4v1.2C743.3-269.9,744.2-270.4,746-270.4
							"/>
					</g>
				</g>
				<g id="u">
					<path id="v" class="st0" d="M571.6-273.9L571.6-273.9l4.3,7.6c-3.1,2.1-8.2,3.5-13.2,3.5c-8.9,0-16.8-4.4-21.1-11.9
						c-2.5-4.4-3.7-9.5-3.7-16c0-7.5,2.2-13.8,6.7-18.4c4.5-4.8,10.4-7.1,18-7.1c6,0,10.5,1.3,14.7,4.4l-4.4,7
						c-0.4-0.3-0.8-0.6-1.1-0.8c-2.7-1.7-5.3-2.5-8.3-2.5c-4.8,0-8.4,2-10.6,5.8c-1.7,2.8-2.3,6.7-2.3,13.8c0,6,1,10.3,3.1,13.2
						c2,2.7,5.6,4.4,9.4,4.4C565.9-271,568.8-272,571.6-273.9L571.6-273.9z"/>
					<path id="w" class="st0" d="M590.1-292v0.1c0,5.2,2.1,8.1,5.9,8.1c2,0,3.4-0.7,4.3-2.2c0.9-1.4,1.2-2.9,1.2-5.6v-0.4H590.1
						L590.1-292z M607.3-304.8c-3-2.5-6.1-3.7-9.5-3.7c-5.1,0-7.9,3.3-7.9,9.1v0.3h21.7v2.3c0,7.8-1.5,12.9-5,16.4
						c-2.4,2.5-6.5,4-10.8,4c-5,0-8.7-1.6-11.8-5.1c-3.3-3.7-4.7-8.1-4.7-14.9c0-11.8,7-19.4,17.7-19.4c5.3,0,9.8,1.7,14.1,5.2
						L607.3-304.8"/>
					<path id="x" class="st0" d="M626-276.9h-8.8v-37.9h9.8v26.5c2.3,2,4.8,3.4,6.8,3.4c2.6,0,3.3-1.2,3.3-5.5v-24.4h9.7v27.4
						c0,2.3-0.2,4-0.7,5.3c-1.2,3.2-4.8,5.4-9,5.4c-2.2,0-4.8-0.6-6.7-1.6c-1.6-0.9-2.1-1.2-4.3-2.8V-276.9L626-276.9z"/>
					<path id="y" class="st0" d="M677.4-286.4L677.4-286.4l2.6,6.9c-3.3,1.6-7.1,3.2-12.8,3.2c-8.7,0-14.5-4.9-14.5-12.2
						c0-2.4,0.8-5.1,2.1-6.7c1.3-1.6,4.4-3.4,6.9-3.8l4.4-0.8c4-0.7,5.8-2,5.8-4.6c0-2.4-2.2-4.2-5-4.2c-4.2,0-9.4,2.4-12.4,4.2
						l-3.1-7.4c5.3-2.7,10.3-4.1,14.7-4.1c9.6,0,16,5.3,16,13c0,2.5-0.7,4.6-2.1,6.4c-1.3,1.7-2.9,3.1-7.5,4.2l-4.5,1.2
						c-3.4,0.9-4.7,1.9-4.7,3.8c0,2.2,2,3.7,4.8,3.7C671-283.7,673.7-284.5,677.4-286.4L677.4-286.4z"/>
					<path id="a_x60_" class="st0" d="M708.3-314.8h8.8v37.9h-9.8v-26.5c-2.3-2-4.8-3.4-6.8-3.4c-2.6,0-3.3,1.2-3.3,5.5v24.4h-9.7
						v-27.4c0-2.3,0.2-4,0.7-5.3c1.2-3.2,4.8-5.4,9-5.4c2.2,0,4.8,0.6,6.7,1.6c1.6,0.9,2,1.2,4.3,2.8L708.3-314.8L708.3-314.8z"/>
					<path id="aa" class="st0" d="M747.7-286.4L747.7-286.4l2.6,6.9c-3.3,1.6-7.1,3.2-12.8,3.2c-8.7,0-14.5-4.9-14.5-12.2
						c0-2.4,0.8-5.1,2.1-6.7c1.3-1.6,4.4-3.4,6.9-3.8l4.4-0.8c4-0.7,5.8-2,5.8-4.6c0-2.4-2.2-4.2-5-4.2c-4.3,0-9.4,2.4-12.5,4.2
						l-3.1-7.4c5.3-2.7,10.2-4.1,14.7-4.1c9.6,0,16,5.3,16,13c0,2.5-0.7,4.6-2,6.4c-1.3,1.7-2.9,3.1-7.5,4.2l-4.5,1.2
						c-3.4,0.9-4.7,1.9-4.7,3.8c0,2.2,2,3.7,4.8,3.7C741.3-283.7,744-284.5,747.7-286.4L747.7-286.4z"/>
				</g>
				<g id="ab">
					<path id="ac" class="st0" d="M691.6-329.1h2.5c0.7,0,0.8,0,1.2-0.1c0.7-0.2,1.1-1,1.1-1.8c0-0.7-0.3-1.4-0.8-1.8
						c-0.3-0.2-0.8-0.3-1.4-0.3h-2.6L691.6-329.1L691.6-329.1z M691.5-323.1h2.4c0.7,0,1-0.1,1.3-0.2c0.5-0.3,0.9-0.9,0.9-1.5
						s-0.4-1.3-0.8-1.6c-0.3-0.1-0.6-0.2-1.3-0.2h-2.4V-323.1L691.5-323.1z M688.5-320.6L688.5-320.6v-15.1h5.4c0.8,0,1.5,0,1.9,0
						c2.6,0.2,3.9,2.1,3.9,4.2c0,2-1,3.2-3,3.8c0.7,0.2,1,0.4,1.4,0.8c0.7,0.7,1,1.5,1,2.5c0,1.1-0.4,2-1.2,2.7
						c-0.9,0.8-1.9,1.1-3.7,1.1L688.5-320.6L688.5-320.6z"/>
					<path id="ad" class="st0" d="M708-335.7h2.3v10.8h-2.8v-7.9c-0.2-0.5-1.1-1.1-1.8-1.1c-0.4,0-0.9,0.2-1,0.5
						c-0.2,0.3-0.2,0.8-0.2,1.8v6.6h-2.9v-7.1c0-1.1,0.1-1.7,0.2-2.2c0.4-1.1,1.7-1.8,3.3-1.8c1.2,0,2.2,0.4,2.9,1.1L708-335.7
						L708-335.7z"/>
					<path id="ae" class="st0" d="M712.7-324.8v-10.8h2.9v7.8c0.5,0.6,1.1,0.9,1.8,0.9c0.3,0,0.6-0.1,0.8-0.2l0.6,2.5
						c-0.5,0.2-0.7,0.2-1.1,0.2c-0.3,0-0.7-0.1-1-0.2c-0.5-0.3-1-0.7-1.5-1.3v1.1C715.3-324.8,712.7-324.8,712.7-324.8z"/>
					<path id="af" class="st0" d="M722.5-328.9L722.5-328.9c0,1.6,0.6,2.4,1.7,2.4c0.6,0,1-0.2,1.3-0.7c0.3-0.4,0.3-0.8,0.3-1.7
						v-0.1L722.5-328.9L722.5-328.9z M727.6-332.7c-0.9-0.7-1.8-1.1-2.8-1.1c-1.5,0-2.3,1-2.3,2.7v0.1h6.4v0.7
						c0,2.3-0.5,3.8-1.5,4.9c-0.7,0.7-1.9,1.2-3.2,1.2c-1.5,0-2.6-0.5-3.5-1.5c-1-1.1-1.4-2.4-1.4-4.4c0-3.5,2.1-5.7,5.2-5.7
						c1.6,0,2.9,0.5,4.2,1.5L727.6-332.7"/>
					<path id="ag" class="st0" d="M736.2-333.2c-0.4-0.5-1-0.8-1.5-0.8c-0.7,0-1.3,0.6-1.3,1.5c0,1.3,0.7,1.7,2.7,1.7h0.1
						L736.2-333.2z M737-335.7h2.1v3.7l0.1,3.7c0,1.2,0,1.5-0.2,2c-0.4,1.2-1.7,1.9-3.6,1.9c-1,0-1.9-0.2-3-0.6
						c-0.8-0.3-1.1-0.5-1.8-0.9l1.2-2.1c1.2,0.8,2.3,1.3,3.2,1.3c1.1,0,1.3-0.4,1.3-1.6v-0.5c-0.3,0-0.4,0-0.6,0
						c-3.5,0-5.3-1.2-5.3-3.8c0-2.2,1.3-3.5,3.8-3.5c0.9,0,1.7,0.2,2.2,0.6c0.2,0.1,0.3,0.2,0.7,0.6V-335.7L737-335.7z"/>
					<path id="ah" class="st0" d="M747.7-335.7h2.3v10.8h-2.8v-7.9c-0.2-0.5-1.1-1.1-1.8-1.1c-0.4,0-0.9,0.2-1,0.5
						c-0.2,0.3-0.2,0.8-0.2,1.8v6.6h-2.9v-7.1c0-1.1,0.1-1.7,0.2-2.2c0.4-1.1,1.7-1.8,3.3-1.8c1.2,0,2.2,0.4,2.9,1.1L747.7-335.7
						L747.7-335.7z"/>
				</g>
			</g>
			<path id="ai" class="st0" d="M543.4-325.6c-2.8,0-5-2.3-5-5c0-2.8,2.3-5,5-5h133.5c2.8,0,5,2.2,5,5c0,2.8-2.3,5-5,5H543.4"/>
		</g>
	</g>
</g>
</svg>
