<?xml version="1.0" encoding="UTF-8"?><svg xmlns="http://www.w3.org/2000/svg" viewBox="0 0 302.03 123.53"><defs><style>.aj{fill:#231f20;}</style></defs><g id="a"/><g id="b"><g id="c"><g id="d" transform="matrix(1.25,0,0,-1.25,-659.20439,-303.44392)"><g id="e"><g id="f"><g id="g"><path id="h" class="aj" d="M85.06,5.53v13.88c0,7.66-3.7,11.82-10.52,11.82s-10.31-4.36-10.31-11.92V5.53h-3.14V1.91h10.61v3.62h-3.13v14.21c0,5.03,2.06,7.72,6.06,7.72s6.15-2.62,6.15-7.44V5.53h-3.14V1.91h10.58v3.62h-3.15"/><path id="i" class="aj" d="M101.84,30.78v-3.43h2.51v-9.86c0-4.13-1.32-5.31-3.54-5.31-2.07,0-3.48,1.07-4.7,2.66v12.5h2.54v3.43h-9.31v-3.43h2.51V12.55h-2.51v-3.43h6.76v2.23c1.39-1.65,3.18-2.68,5.76-2.68,4.35,0,6.74,2.42,6.74,8.53v10.15h2.56v3.43h-9.33"/><path id="j" class="aj" d="M113.59,30.78v-3.43h2.67V12.55h-2.67v-3.43h6.93V27.36h2.67v3.43h-9.61Zm4.37-25.29c-1.54,0-2.78-1.24-2.78-2.72s1.24-2.77,2.78-2.77,2.72,1.24,2.72,2.77-1.23,2.72-2.72,2.72"/><path id="k" class="aj" d="M136.48,30.25c-1,.57-2.4,.98-4.01,.98-2.85,0-4.65-1.86-4.65-5.74V12.55h-2.93v-3.43h2.93V2.94l4.24-2.24V9.13h4.87v3.43h-4.87v12.54c0,2.02,.53,2.59,2.01,2.59,.45,0,.89-.07,1.31-.19l1.09,2.75h0Z"/><path id="l" class="aj" d="M147.78,12.19c-2.81,0-4.26,2.05-4.55,5.88h9.21c-.24-3.22-1.36-5.88-4.66-5.88m8.8,9.27h-13.38c.32,3.93,1.96,6.15,5.36,6.15,2.44,0,3.88-.65,5.81-2.11l1.82,2.9c-2.34,1.93-4.75,2.84-7.88,2.84-5.32,0-9.28-4.08-9.28-11.25s3.67-11.31,9-11.31c5.86,0,8.66,5,8.66,10.85,0,.78-.09,1.47-.11,1.93"/><path id="m" class="aj" d="M173.15,15.02c-.91-1.28-2.72-2.83-4.75-2.83-2.85,0-4.34,2.47-4.34,7.28,0,6.02,1.69,8.27,4.55,8.27,1.74,0,2.89-.83,4.54-2.77V15.02h0Zm-.04,15.76v-2.28c-1.47,1.74-3.05,2.72-5.37,2.72-4.62,0-7.92-3.38-7.92-11.62,0-7.42,3.62-10.94,7.71-10.94,2.6,0,4.2,1.12,5.57,2.56V3.62h-2.57V.21h6.79V27.36h2.3v3.43h-6.51"/></g><g id="n"><path id="o" class="aj" d="M203.12,31.23c-2.8,0-4.87-1.11-6.27-2.8v2.35h-3.72v-8.83h3.52c1.03,3.54,2.84,5.58,6.39,5.58,3.16,0,4.87-1.53,4.87-4.34,0-2.52-.79-3.79-6.04-5.28-5.74-1.6-8.54-3.47-8.54-8.62,0-4.88,3.33-7.85,8.26-7.85,3.3,0,5.15,1.33,6.06,2.81V1.91h3.71V10.73h-3.51c-.53-3.39-2.43-5.58-5.99-5.58-3.05,0-4.16,1.57-4.16,3.84,0,2.39,1.57,3.72,5.82,4.91,5.77,1.66,8.76,3.65,8.76,8.8,0,5.69-3.77,8.53-9.17,8.53"/><path id="p" class="aj" d="M226.26,30.25c-1,.57-2.39,.98-4.01,.98-2.84,0-4.65-1.86-4.65-5.74V12.55h-2.94v-3.43h2.94V2.94l4.24-2.24V9.13h4.87v3.43h-4.87v12.54c0,2.02,.53,2.59,2.02,2.59,.45,0,.89-.07,1.3-.19l1.09,2.75h0Z"/><path id="q" class="aj" d="M241.68,21.26c-1.08-.53-2.26-.95-4.79-.95-2.34,0-3.97,1.33-3.97,3.6,0,2.64,1.21,3.79,3.68,3.79,2.07,0,3.89-1.15,5.07-2.72v-3.71Zm0,9.53v-2.35c-1.32,1.69-3.3,2.8-5.85,2.8-3.73,0-6.93-1.9-6.93-7.21,0-4.83,3.41-7.11,8-7.11,2.07,0,3.6,.41,4.79,1.04v-2.02c0-2.36-1.41-3.67-3.92-3.67-2.1,0-3.76,.41-5.36,1.35l-1.56-3.01c1.98-1.27,4.28-1.94,7.18-1.94,4.57,0,7.8,2.34,7.8,7.26v11.42h2.35v3.43h-6.48"/><path id="r" class="aj" d="M260.81,30.25c-1,.57-2.4,.98-4.01,.98-2.85,0-4.65-1.86-4.65-5.74V12.55h-2.94v-3.43h2.94V2.94l4.24-2.24V9.13h4.87v3.43h-4.87v12.54c0,2.02,.53,2.59,2.02,2.59,.45,0,.89-.07,1.31-.19l1.09,2.75h0Z"/><path id="s" class="aj" d="M272.16,12.19c-2.81,0-4.25,2.05-4.54,5.88h9.19c-.22-3.22-1.36-5.88-4.65-5.88m8.79,9.27h-13.38c.34,3.93,1.99,6.15,5.36,6.15,2.45,0,3.88-.65,5.83-2.11l1.83,2.9c-2.36,1.93-4.76,2.84-7.89,2.84-5.32,0-9.28-4.08-9.28-11.25s3.67-11.31,8.99-11.31c5.87,0,8.67,5,8.67,10.85,0,.78-.09,1.47-.12,1.93"/><path id="t" class="aj" d="M292.94,31.1c-2.51,0-3.77-.73-4.91-2.05v1.74h-3.31v-6.76h2.93c1.31,2.47,2.64,3.71,5.12,3.71,1.78,0,2.72-1.04,2.72-2.53,0-1.6-.7-2.5-3.75-3.37-5.28-1.53-7.06-3.11-7.06-7.02,0-3.14,2.27-6.03,6.61-6.03,1.93,0,3.38,.46,4.54,1.65v-1.31h3.3v6.77h-2.94c-.97-2.48-2.3-3.8-4.66-3.8-1.8,0-2.64,.94-2.64,2.4,0,1.31,.5,2.26,3.75,3.26,5.08,1.57,7.05,3.05,7.05,7.15,0,3.42-2.59,6.2-6.76,6.2"/></g></g><g id="u"><path id="v" class="aj" d="M47.55,36.07c-3.91-2.71-8.04-4.06-12.39-4.06-5.24,0-10.39,2.39-13.17,6.25-3.01,4.16-4.36,10.2-4.36,18.63,0,9.89,.89,15.4,3.24,19.36,3.13,5.31,8.26,8.12,14.96,8.12,4.24,0,7.93-1.15,11.72-3.54,.45-.31,1.01-.72,1.57-1.14l6.26,9.81c-5.89,4.23-12.26,6.12-20.66,6.12-10.71,0-18.98-3.23-25.33-10C3.13,79.06,0,70.32,0,59.7c0-9.05,1.67-16.24,5.25-22.48,6.03-10.52,17.18-16.76,29.69-16.76,7.12,0,14.24,1.96,18.62,4.97l-6.02,10.64h0Z"/><path id="w" class="aj" d="M73.54,61.56h15.97v-.62c0-3.91-.41-5.97-1.64-7.93-1.34-2.06-3.3-3.09-6.08-3.09-5.25,0-8.24,4.12-8.24,11.44v.2Zm24.31,18.03l5.36,8.24c-6.08,4.95-12.46,7.31-19.88,7.31-15.15,0-24.94-10.71-24.94-27.31,0-9.48,1.96-15.76,6.6-20.91,4.33-4.84,9.58-7.11,16.59-7.11,6.08,0,11.85,2.06,15.25,5.56,4.85,4.95,7,12.05,7,23.08v3.19h-30.49v.41c0,8.14,4.02,12.78,11.13,12.78,4.74,0,9.18-1.75,13.39-5.25"/><path id="x" class="aj" d="M124.13,40.32v5.79c3.18-2.26,3.8-2.68,6.07-3.91,2.77-1.45,6.39-2.27,9.48-2.27,5.88,0,11.02,3.09,12.67,7.63,.72,1.95,1.03,4.22,1.03,7.52v38.53h-13.6V59.3c0-5.98-1.03-7.73-4.64-7.73-2.78,0-6.39,1.86-9.58,4.74v37.29h-13.81V40.32h12.38Z"/><path id="y" class="aj" d="M196.43,53.63c-5.26-2.68-9.07-3.81-12.98-3.81s-6.7,2.06-6.7,5.15c0,2.68,1.75,4.12,6.59,5.36l6.39,1.65c6.49,1.65,8.65,3.61,10.5,5.97,1.96,2.47,2.89,5.46,2.89,8.96,0,10.92-9.06,18.34-22.56,18.34-6.32,0-13.24-1.96-20.74-5.78l4.36-10.4c4.23,2.57,11.54,5.97,17.51,5.97,3.92,0,7.01-2.57,7.01-5.97,0-3.61-2.58-5.46-8.14-6.49l-6.18-1.13c-3.51-.62-7.83-3.09-9.69-5.36-1.85-2.27-2.99-6.07-2.99-9.47,0-10.3,8.14-17.21,20.4-17.21,7.98,0,13.38,2.29,18.03,4.54l-3.7,9.68h0Z"/><path id="a`" class="aj" d="M239.85,93.6l-.03-5.79c-3.19,2.26-3.81,2.67-6.07,3.91-2.78,1.44-6.39,2.27-9.48,2.27-5.88,0-11.03-3.09-12.68-7.63-.72-1.95-1.02-4.22-1.02-7.52V40.31h13.59v34.31c0,5.98,1.03,7.73,4.64,7.73,2.78,0,6.38-1.86,9.58-4.74V40.31h13.81v53.29h-12.33Z"/><path id="aa" class="aj" d="M295.35,53.63c-5.26-2.68-9.07-3.81-12.99-3.81s-6.7,2.06-6.7,5.15c0,2.68,1.75,4.12,6.6,5.36l6.39,1.65c6.49,1.65,8.65,3.61,10.5,5.97,1.96,2.47,2.88,5.46,2.88,8.96,0,10.92-9.06,18.34-22.56,18.34-6.33,0-13.24-1.96-20.74-5.78l4.36-10.4c4.23,2.57,11.54,5.97,17.52,5.97,3.92,0,7.01-2.57,7.01-5.97,0-3.61-2.58-5.46-8.14-6.49l-6.18-1.13c-3.5-.62-7.82-3.09-9.68-5.36-1.85-2.27-2.99-6.07-2.99-9.47,0-10.3,8.14-17.21,20.4-17.21,7.97,0,13.37,2.29,18.02,4.54l-3.69,9.68h0Z"/></g><g id="ab"><path id="ac" class="aj" d="M216.35,113.74v5.74h3.65c.89,0,1.5-.15,1.98-.49,.64-.49,1.1-1.46,1.1-2.47,0-1.23-.64-2.26-1.56-2.6-.52-.15-.67-.19-1.65-.19h-3.53Zm-.06-8.39v4.88h3.41c1,0,1.47-.06,1.83-.27,.58-.31,1.1-1.34,1.1-2.2s-.49-1.77-1.22-2.14c-.37-.15-.82-.28-1.77-.28h-3.35Zm-4.21-3.63h8.05c2.59,0,3.93,.4,5.22,1.53,1.19,1.04,1.74,2.26,1.74,3.79,0,1.43-.51,2.65-1.43,3.57-.61,.58-.98,.79-1.95,1.1,2.84,.85,4.21,2.56,4.21,5.34,0,2.93-1.83,5.62-5.55,5.86-.67,.03-1.56,.06-2.71,.06h-7.56v-21.23h0Z"/><path id="ad" class="aj" d="M239.47,122.95v-1.09c-1.01,.98-2.47,1.49-4.11,1.49-2.2,0-4.09-1.04-4.61-2.53-.25-.7-.34-1.52-.34-3.11v-10.01h4.03v9.28c0,1.4,.09,2.14,.34,2.56,.21,.43,.83,.73,1.44,.73,1,0,2.23-.73,2.53-1.5v-11.07h3.91v15.25h-3.18Z"/><path id="ae" class="aj" d="M249.76,107.7v1.5c.59-.79,1.29-1.46,2.05-1.83,.34-.15,.89-.24,1.34-.24,.61,0,.88,.06,1.53,.34l-.86,3.45c-.4-.22-.73-.31-1.19-.31-.91,0-1.74,.43-2.5,1.31v11.04h-4.09v-15.26h3.72Z"/><path id="af" class="aj" d="M259.84,113.47h4.73v-.19c0-1.16-.12-1.77-.49-2.34-.39-.61-.98-.92-1.8-.92-1.56,0-2.44,1.22-2.44,3.38v.06Zm7.2,5.34l1.58,2.44c-1.8,1.47-3.69,2.16-5.89,2.16-4.48,0-7.38-3.17-7.38-8.08,0-2.81,.58-4.67,1.95-6.19,1.28-1.43,2.84-2.1,4.91-2.1,1.8,0,3.51,.61,4.52,1.65,1.43,1.46,2.07,3.57,2.07,6.83v.95h-9.03v.12c0,2.41,1.19,3.79,3.3,3.79,1.4,0,2.71-.52,3.97-1.56"/><path id="ag" class="aj" d="M279.19,116.12h-.19c-2.83,0-3.81,.52-3.81,2.38,0,1.22,.76,2.05,1.8,2.05,.76,0,1.52-.4,2.14-1.07l.06-3.36Zm1.1,6.83v-1.09c-.58,.55-.64,.61-.94,.82-.76,.55-1.86,.85-3.14,.85-3.48,0-5.37-1.76-5.37-4.88,0-3.66,2.53-5.37,7.5-5.37,.31,0,.49,0,.91,.03v-.64c0-1.73-.33-2.31-1.83-2.31-1.31,0-2.84,.64-4.51,1.77l-1.74-2.93c1.01-.64,1.43-.85,2.53-1.28,1.53-.64,2.84-.91,4.27-.91,2.62,0,4.42,.97,5.03,2.71,.21,.64,.28,1.13,.28,2.81l-.09,5.25v5.19h-2.9Z"/><path id="ah" class="aj" d="M295.37,122.95v-1.09c-1.01,.98-2.47,1.49-4.12,1.49-2.2,0-4.08-1.04-4.61-2.53-.24-.7-.34-1.52-.34-3.11v-10.01h4.03v9.28c0,1.4,.09,2.14,.34,2.56,.22,.43,.83,.73,1.44,.73,1.01,0,2.22-.73,2.53-1.5v-11.07h3.91v15.25h-3.17Z"/></g></g><path id="ai" class="aj" d="M7.95,108.79H195.76c3.92,0,7.09,3.16,7.09,7.08s-3.17,7.08-7.09,7.08H7.95c-3.91,0-7.09-3.17-7.09-7.08s3.18-7.08,7.09-7.08"/></g></g></g></svg>