<?xml version="1.0" encoding="UTF-8"?><svg xmlns="http://www.w3.org/2000/svg" viewBox="0 0 133.36 42"><defs><style>.d,.e{fill:#231f20;}.e{stroke:#000;stroke-miterlimit:10;stroke-width:.2px;}</style></defs><g id="a"/><g id="b"><g id="c"><g><path class="e" d="M37.94,11.55c-.35,0-.65-.05-.91-.16-.26-.11-.47-.26-.65-.44-.17-.19-.3-.41-.38-.66-.08-.25-.13-.53-.13-.82,0-.24,.04-.49,.13-.74,.08-.25,.21-.47,.38-.67,.17-.2,.39-.36,.65-.49,.26-.13,.56-.19,.91-.19,.14,0,.26,0,.37,0,.11,0,.22,.02,.32,.03,.1,.01,.2,.03,.3,.06,.1,.02,.2,.05,.31,.08,0,.11,.02,.25,.04,.41,.03,.16,.06,.32,.1,.49-.03,.02-.06,.03-.1,.03s-.06,0-.09-.01c-.03,0-.04-.03-.05-.07-.07-.27-.19-.47-.35-.58s-.39-.17-.7-.17c-.26,0-.48,.04-.68,.12-.2,.08-.36,.2-.5,.35-.13,.15-.24,.33-.3,.53-.07,.21-.1,.44-.1,.7,0,.28,.04,.55,.13,.79,.09,.24,.2,.44,.35,.62,.15,.17,.32,.31,.51,.4,.2,.1,.4,.14,.63,.14,.18,0,.33-.02,.45-.05,.12-.03,.22-.09,.3-.15,.08-.07,.15-.15,.2-.24,.06-.1,.11-.21,.16-.33,.03-.06,.08-.09,.15-.09,.02,0,.04,0,.06,0,.02,0,.04,.01,.05,.02-.05,.15-.1,.3-.15,.48-.05,.17-.09,.35-.12,.52-.2,.03-.41,.06-.62,.08-.21,.02-.44,.03-.69,.03"/><path class="e" d="M42.48,10h-1.38l-.4,1s-.03,.09-.03,.12c0,.09,.13,.15,.38,.19,.03,0,.05,.01,.06,.03,0,.02,.01,.04,.01,.07s0,.06-.01,.1c-.11,0-.23-.01-.35-.02-.12,0-.25,0-.37,0-.08,0-.17,0-.25,0-.09,0-.18,.01-.27,.03,0-.03-.01-.07-.01-.1,0-.03,0-.06,.02-.08,0-.02,.03-.03,.06-.04,.13-.02,.22-.05,.29-.08,.06-.03,.11-.08,.14-.15l1.49-3.59c.03-.07,.07-.1,.12-.1,.02,0,.04,0,.08,.01l1.5,3.7c.02,.06,.08,.1,.17,.14,.09,.03,.17,.06,.25,.07,.02,0,.04,.02,.06,.04,.01,.01,.02,.04,.02,.08,0,.02,0,.06-.01,.1-.13,0-.26-.01-.39-.02-.13,0-.25,0-.36,0s-.25,0-.4,0c-.15,0-.28,.01-.4,.02,0-.04-.01-.07-.01-.1,0-.04,0-.06,.02-.08,.01-.02,.03-.02,.04-.02,.11-.02,.19-.04,.26-.07,.07-.03,.1-.07,.1-.12,0-.03,0-.06-.03-.09l-.39-1.02Zm-.1-.25l-.58-1.52-.6,1.52h1.17Z"/><path class="e" d="M45.52,11.03c0,.07,.03,.12,.09,.15,.06,.03,.15,.04,.25,.04h.67c.12,0,.22-.02,.31-.05,.09-.03,.16-.08,.22-.13,.06-.06,.12-.13,.16-.21,.05-.08,.09-.18,.13-.29,.01-.03,.04-.05,.07-.05,.02,0,.04,0,.06,.01,.02,.01,.05,.02,.07,.03-.03,.12-.06,.25-.08,.39s-.05,.29-.07,.47c0,.05-.02,.08-.04,.09-.02,.01-.05,.02-.08,.02-.07,0-.16,0-.26-.02-.1,0-.2-.01-.27-.01h-1.55c-.09,0-.22,0-.36,0-.14,0-.28,.01-.41,.02,0-.04-.01-.07-.01-.1,0-.06,.02-.09,.06-.1,.17-.03,.28-.06,.35-.1,.06-.03,.09-.09,.09-.16v-3.16c0-.08-.03-.14-.09-.18-.06-.03-.17-.06-.33-.09-.02,0-.04-.01-.05-.03-.01-.02-.02-.04-.02-.07,0-.03,0-.06,.01-.1,.14,0,.28,.01,.42,.02,.14,0,.25,0,.35,0,.14,0,.29,0,.45,0,.16,0,.3-.01,.42-.02,0,.04,.01,.07,.01,.1,0,.07-.02,.11-.07,.11-.18,.02-.31,.05-.39,.09-.08,.04-.13,.11-.13,.21v3.09Z"/><path class="e" d="M49.03,11.04c0,.08,.03,.14,.09,.17,.06,.03,.17,.06,.32,.1,.04,0,.06,.04,.06,.1,0,.02,0,.06-.01,.1-.13,0-.26-.01-.38-.02-.13,0-.25,0-.37,0s-.23,0-.37,0c-.13,0-.26,.01-.38,.02,0-.04-.01-.07-.01-.1,0-.06,.02-.09,.06-.1,.16-.03,.26-.06,.32-.09,.06-.03,.09-.09,.09-.17v-3.15c0-.08-.03-.14-.09-.18-.06-.04-.17-.07-.32-.09-.03,0-.04-.02-.05-.04,0-.02-.01-.04-.01-.07s0-.06,.01-.1c.12,0,.25,.02,.39,.02,.13,0,.25,0,.36,0s.22,0,.36,0c.13,0,.27-.01,.39-.02,0,.04,.01,.08,.01,.1,0,.06-.02,.1-.06,.1-.16,.03-.26,.06-.32,.09-.06,.03-.09,.09-.09,.18v3.15Z"/><path class="e" d="M50.66,7.89c0-.08-.03-.14-.1-.17-.06-.03-.18-.06-.34-.09-.03,0-.05-.02-.05-.03,0-.01,0-.04,0-.07,0-.03,0-.06,.01-.1,.14,0,.27,.02,.4,.02,.13,0,.25,0,.36,0h1.23c.16,0,.31,0,.46-.02,.14-.01,.24-.02,.3-.02,.05,0,.08,.03,.11,.1,.02,.07,.04,.15,.05,.24,.01,.1,.03,.2,.04,.3,.02,.11,.05,.2,.09,.28-.01,.02-.03,.03-.05,.03-.02,0-.04,0-.06,0-.05,0-.08-.02-.1-.06-.05-.11-.1-.21-.15-.29-.05-.08-.1-.14-.16-.19-.06-.05-.13-.09-.21-.11-.08-.02-.19-.03-.31-.03h-.92v1.65h.92c.08,0,.14-.04,.18-.12,.03-.08,.06-.18,.08-.29,.01-.05,.05-.08,.11-.08,.03,0,.07,0,.1,.01,0,.09-.02,.2-.02,.31,0,.12,0,.22,0,.31,0,.07,0,.15,0,.25,0,.1,.01,.21,.02,.34-.03,0-.06,.01-.09,.01-.03,0-.06,0-.08-.02-.02,0-.03-.03-.04-.06-.02-.11-.04-.2-.08-.28-.04-.08-.1-.12-.18-.12h-.92v1.43c0,.08,.05,.14,.16,.17,.11,.03,.23,.06,.39,.08,.05,0,.08,.04,.08,.1,0,.03,0,.06-.01,.1-.09,0-.18,0-.28-.01-.08,0-.18,0-.29-.01-.11,0-.22,0-.34,0-.11,0-.24,0-.38,0-.14,0-.27,.01-.39,.02,0-.04-.01-.07-.01-.1,0-.06,.02-.1,.06-.1,.14-.03,.24-.07,.32-.1,.08-.03,.12-.09,.12-.17v-3.15Z"/><path class="e" d="M53.63,9.46c0-.28,.05-.55,.15-.8,.1-.25,.24-.47,.42-.66,.18-.19,.38-.34,.62-.45,.24-.11,.48-.17,.74-.17,.36,0,.67,.06,.94,.17,.27,.11,.49,.27,.67,.46,.17,.19,.31,.41,.39,.66,.09,.25,.13,.52,.13,.79,0,.33-.05,.62-.16,.88-.11,.26-.25,.48-.44,.66-.19,.18-.41,.32-.66,.41-.25,.09-.53,.14-.81,.14s-.56-.05-.8-.15c-.24-.1-.45-.24-.63-.42-.18-.18-.31-.4-.41-.66-.1-.26-.15-.54-.15-.85m2.13,1.79c.19,0,.37-.04,.53-.11,.16-.07,.3-.18,.41-.31,.12-.13,.21-.29,.27-.47,.06-.18,.1-.38,.1-.59,0-.3-.03-.57-.09-.83-.06-.25-.15-.47-.28-.66-.12-.19-.28-.34-.48-.44-.19-.11-.42-.16-.67-.16-.17,0-.33,.03-.49,.1-.15,.06-.29,.16-.41,.28-.12,.12-.21,.27-.28,.45-.07,.18-.1,.38-.1,.61,0,.31,.03,.59,.1,.85,.07,.26,.16,.49,.29,.68,.13,.19,.28,.34,.47,.45,.19,.11,.4,.16,.64,.16"/><path class="e" d="M59.89,9.67h-.46v1.36c0,.09,.04,.15,.13,.19,.08,.03,.21,.06,.39,.08,.05,0,.07,.04,.07,.1,0,.03,0,.06-.01,.1-.11,0-.25-.01-.4-.02-.16,0-.32,0-.47,0-.11,0-.23,0-.37,0-.14,0-.27,.01-.39,.02,0-.04-.01-.07-.01-.1,0-.06,.02-.09,.07-.1,.16-.03,.27-.06,.33-.09,.06-.03,.1-.1,.1-.18v-3.15c0-.08-.03-.14-.09-.18-.06-.04-.18-.07-.35-.09-.04,0-.06-.04-.06-.11,0-.02,0-.06,.01-.1,.12,.01,.25,.02,.38,.02,.13,0,.26,0,.38,0h.83c.45,0,.78,.1,1.01,.29,.23,.2,.34,.46,.34,.79,0,.09-.01,.19-.05,.28-.03,.1-.08,.2-.14,.29-.06,.1-.15,.18-.25,.26-.1,.08-.22,.15-.36,.2l1.03,1.44c.08,.11,.16,.18,.26,.22,.09,.04,.18,.07,.27,.09,.04,0,.06,.04,.06,.09,0,.03,0,.07-.01,.11-.1,0-.21-.01-.35-.02-.14,0-.26,0-.38,0-.09,0-.17-.04-.26-.11-.09-.07-.17-.17-.25-.28l-.99-1.43Zm-.13-.25c.29,0,.51-.06,.67-.18,.16-.12,.24-.34,.24-.64,0-.13-.02-.24-.05-.35-.03-.11-.09-.2-.16-.28s-.17-.14-.28-.19c-.12-.05-.26-.07-.43-.07h-.31v1.71h.33Z"/><path class="e" d="M65.65,10.49v-2.58c0-.09-.03-.16-.1-.19-.07-.04-.18-.07-.33-.09-.05,0-.07-.04-.07-.11,0-.02,0-.06,.01-.1,.1,0,.21,.02,.32,.02,.11,0,.21,0,.3,0s.19,0,.29,0c.1,0,.2-.01,.29-.02,0,.04,.01,.07,.01,.1,0,.07-.02,.1-.06,.11-.14,.02-.24,.05-.29,.09-.05,.04-.08,.1-.08,.18v3.64s-.02,0-.04,.01c-.02,0-.04,0-.05,0-.03,0-.06,0-.08-.02-.02-.01-.05-.04-.09-.09l-2.51-3.31v2.91c0,.08,.03,.14,.09,.17,.06,.03,.17,.06,.33,.09,.04,0,.06,.04,.06,.1,0,.02,0,.06-.01,.1-.1,0-.21-.01-.31-.02-.11,0-.2,0-.29,0-.08,0-.18,0-.29,0-.11,0-.21,.01-.3,.02,0-.04-.01-.07-.01-.1,0-.06,.02-.09,.07-.1,.15-.03,.25-.06,.3-.09,.05-.03,.08-.09,.08-.17v-3.18c0-.07-.02-.12-.07-.15-.05-.03-.15-.06-.29-.08-.05,0-.07-.04-.07-.11,0-.02,0-.04,0-.05,0-.01,0-.03,0-.04,.08,0,.16,.01,.24,.02,.07,0,.13,0,.21,0,.07,0,.14,0,.2,0,.12,0,.2,0,.24,.01,.04,0,.07,.03,.1,.06l2.22,2.96Z"/><path class="e" d="M68.05,11.04c0,.08,.03,.14,.09,.17,.06,.03,.17,.06,.32,.1,.04,0,.06,.04,.06,.1,0,.02,0,.06-.01,.1-.13,0-.26-.01-.38-.02-.13,0-.25,0-.37,0s-.23,0-.37,0c-.14,0-.26,.01-.38,.02,0-.04-.01-.07-.01-.1,0-.06,.02-.09,.06-.1,.16-.03,.26-.06,.32-.09,.06-.03,.09-.09,.09-.17v-3.15c0-.08-.03-.14-.09-.18-.06-.04-.17-.07-.32-.09-.03,0-.04-.02-.05-.04,0-.02-.01-.04-.01-.07s0-.06,.01-.1c.12,0,.25,.02,.39,.02,.13,0,.25,0,.36,0s.22,0,.36,0c.13,0,.26-.01,.39-.02,0,.04,.01,.08,.01,.1,0,.06-.02,.1-.06,.1-.16,.03-.26,.06-.32,.09-.06,.03-.09,.09-.09,.18v3.15Z"/><path class="e" d="M71.55,10h-1.38l-.4,1s-.03,.09-.03,.12c0,.09,.13,.15,.38,.19,.03,0,.05,.01,.06,.03,.01,.02,.02,.04,.02,.07s0,.06-.01,.1c-.11,0-.23-.01-.35-.02-.12,0-.25,0-.36,0-.08,0-.17,0-.25,0-.09,0-.18,.01-.27,.03,0-.03-.01-.07-.01-.1,0-.03,0-.06,.01-.08,.01-.02,.03-.03,.07-.04,.13-.02,.22-.05,.29-.08,.06-.03,.11-.08,.14-.15l1.49-3.59c.03-.07,.07-.1,.12-.1,.02,0,.04,0,.08,.01l1.5,3.7c.02,.06,.08,.1,.17,.14,.09,.03,.17,.06,.25,.07,.03,0,.04,.02,.06,.04,.01,.01,.02,.04,.02,.08,0,.02,0,.06-.01,.1-.13,0-.26-.01-.39-.02-.13,0-.25,0-.36,0-.12,0-.25,0-.4,0-.15,0-.28,.01-.4,.02,0-.04-.01-.07-.01-.1,0-.04,0-.06,.02-.08,.01-.02,.03-.02,.04-.02,.11-.02,.19-.04,.26-.07,.07-.03,.1-.07,.1-.12,0-.03,0-.06-.03-.09l-.39-1.02Zm-.1-.25l-.57-1.52-.6,1.52h1.18Z"/><path class="e" d="M77.54,8.43s-.07,.01-.09,.01c-.05,0-.09-.01-.12-.03-.03-.02-.04-.04-.06-.07-.11-.24-.23-.41-.38-.51-.15-.11-.35-.16-.6-.16-.1,0-.19,.01-.28,.04-.09,.03-.17,.07-.23,.12-.07,.05-.12,.12-.16,.19-.04,.07-.06,.16-.06,.25,0,.19,.08,.35,.25,.48,.16,.12,.4,.25,.72,.38,.4,.16,.69,.33,.88,.52,.19,.19,.28,.43,.28,.71,0,.17-.03,.33-.08,.47-.05,.15-.13,.27-.24,.38-.11,.11-.25,.2-.42,.26-.17,.06-.38,.09-.62,.09-.26,0-.49-.03-.7-.08-.21-.06-.38-.12-.53-.21-.01-.17-.03-.34-.06-.5s-.05-.32-.09-.48c.03-.01,.06-.02,.11-.02,.05,0,.09,.01,.11,.03,.03,.02,.05,.06,.07,.11,.1,.3,.24,.51,.4,.66,.16,.14,.39,.21,.68,.21,.13,0,.25-.02,.35-.06,.1-.04,.18-.09,.25-.15,.07-.07,.11-.14,.15-.22,.03-.08,.05-.17,.05-.27,0-.21-.07-.38-.22-.51-.15-.12-.36-.24-.63-.33-.18-.07-.34-.13-.48-.21-.14-.07-.27-.15-.37-.25-.1-.09-.18-.2-.24-.33-.06-.13-.08-.28-.08-.45,0-.15,.03-.3,.08-.43,.06-.13,.14-.25,.24-.35,.1-.1,.23-.18,.38-.24,.15-.06,.32-.09,.5-.09s.38,.02,.56,.06c.18,.04,.38,.1,.6,.19,0,.12,.02,.26,.03,.4,.01,.14,.03,.27,.06,.4"/><path class="e" d="M80.35,7.71v3.3c0,.09,.04,.16,.12,.2,.08,.04,.21,.07,.4,.09,.05,0,.07,.03,.07,.1,0,.03,0,.06-.01,.1-.13,0-.27-.01-.42-.02-.15,0-.29,0-.44,0s-.29,0-.44,0c-.15,0-.29,.01-.42,.02,0-.04-.01-.08-.01-.1,0-.06,.02-.09,.06-.1,.19-.03,.32-.06,.4-.09s.12-.1,.12-.2v-3.3h-.64c-.12,0-.23,.01-.31,.04-.08,.02-.16,.06-.22,.11-.06,.05-.12,.11-.16,.19-.04,.08-.09,.17-.14,.27,0,.02-.02,.03-.04,.04-.02,.01-.03,.01-.05,.01-.04,0-.08-.01-.12-.04,.04-.15,.07-.28,.09-.4,.02-.12,.04-.21,.06-.29,.02-.08,.03-.14,.05-.18,.02-.04,.05-.06,.09-.06,.03,0,.07,0,.12,0,.05,0,.11,0,.17,.01h.18c.06,.02,.12,.02,.17,.02h2.07s.11,0,.17,0h.19c.06-.02,.12-.02,.17-.03,.05,0,.09,0,.13,0,.04,0,.07,.02,.09,.06,.02,.04,.04,.1,.05,.18,.02,.08,.03,.17,.05,.29,.02,.11,.05,.24,.1,.38-.02,0-.04,.02-.06,.02-.02,.01-.04,.01-.07,.01-.02,0-.03,0-.06-.01-.02,0-.03-.02-.04-.04-.04-.1-.09-.19-.14-.27-.04-.08-.1-.14-.16-.19-.06-.05-.13-.09-.22-.11-.08-.02-.19-.04-.31-.04h-.64Z"/><path class="e" d="M84.3,10h-1.38l-.4,1s-.03,.09-.03,.12c0,.09,.13,.15,.38,.19,.03,0,.05,.01,.06,.03,0,.02,.01,.04,.01,.07s0,.06-.01,.1c-.11,0-.23-.01-.35-.02-.12,0-.24,0-.36,0-.08,0-.17,0-.25,0-.09,0-.18,.01-.27,.03,0-.03-.01-.07-.01-.1,0-.03,0-.06,.02-.08,.01-.02,.03-.03,.06-.04,.13-.02,.22-.05,.29-.08,.06-.03,.11-.08,.14-.15l1.49-3.59c.03-.07,.07-.1,.12-.1,.02,0,.04,0,.07,.01l1.5,3.7c.02,.06,.08,.1,.17,.14,.09,.03,.17,.06,.25,.07,.03,0,.04,.02,.06,.04,.01,.01,.02,.04,.02,.08,0,.02,0,.06-.01,.1-.13,0-.26-.01-.39-.02-.13,0-.25,0-.36,0s-.25,0-.4,0c-.15,0-.28,.01-.4,.02,0-.04-.01-.07-.01-.1,0-.04,0-.06,.02-.08,.01-.02,.03-.02,.04-.02,.11-.02,.19-.04,.26-.07,.07-.03,.1-.07,.1-.12,0-.03,0-.06-.03-.09l-.39-1.02Zm-.1-.25l-.57-1.52-.6,1.52h1.17Z"/><path class="e" d="M87.82,7.71v3.3c0,.09,.04,.16,.12,.2,.08,.04,.21,.07,.4,.09,.04,0,.07,.03,.07,.1,0,.03,0,.06-.01,.1-.13,0-.27-.01-.42-.02-.15,0-.29,0-.44,0s-.29,0-.44,0c-.15,0-.29,.01-.42,.02,0-.04-.01-.08-.01-.1,0-.06,.02-.09,.06-.1,.19-.03,.32-.06,.4-.09,.08-.04,.12-.1,.12-.2v-3.3h-.64c-.12,0-.23,.01-.31,.04-.08,.02-.16,.06-.22,.11-.06,.05-.11,.11-.16,.19-.05,.08-.09,.17-.14,.27,0,.02-.02,.03-.04,.04-.02,.01-.04,.01-.05,.01-.04,0-.08-.01-.12-.04,.04-.15,.07-.28,.09-.4,.02-.12,.04-.21,.06-.29,.02-.08,.03-.14,.05-.18,.02-.04,.05-.06,.09-.06,.03,0,.07,0,.12,0,.05,0,.11,0,.17,.01h.18c.06,.02,.12,.02,.17,.02h2.06c.05,0,.11,0,.17,0h.19c.06-.02,.12-.02,.17-.03,.05,0,.09,0,.13,0,.04,0,.07,.02,.09,.06,.02,.04,.04,.1,.05,.18,.02,.08,.03,.17,.05,.29,.02,.11,.05,.24,.1,.38-.02,0-.04,.02-.06,.02-.02,.01-.04,.01-.06,.01-.02,0-.04,0-.06-.01-.02,0-.04-.02-.04-.04-.04-.1-.09-.19-.14-.27-.04-.08-.1-.14-.16-.19-.06-.05-.13-.09-.22-.11-.08-.02-.19-.04-.31-.04h-.64Z"/><path class="e" d="M90.98,7.71v1.58h.96c.08,0,.14-.04,.18-.12,.03-.08,.06-.18,.08-.29,.01-.05,.05-.08,.11-.08,.01,0,.03,0,.05,0,.02,0,.04,0,.05,.01,0,.09-.02,.19-.02,.31,0,.11-.01,.22-.01,.3,0,.07,0,.15,0,.26,0,.1,.01,.21,.02,.34-.03,0-.06,.01-.09,.01-.07,0-.11-.03-.12-.08-.02-.12-.05-.21-.08-.29-.04-.08-.1-.12-.18-.12h-.96v1.46c0,.09,.06,.14,.17,.17,.11,.03,.29,.04,.55,.04h.34c.12,0,.22-.02,.31-.05,.09-.03,.17-.08,.23-.14,.07-.06,.13-.13,.18-.21s.1-.17,.15-.27c.01-.03,.04-.04,.09-.04,.02,0,.04,0,.07,.02,.02,.01,.04,.03,.07,.04-.04,.08-.07,.17-.1,.28-.03,.11-.05,.21-.08,.31-.02,.1-.05,.18-.08,.25-.03,.07-.06,.1-.1,.1-.03,0-.08,0-.14,0-.06,0-.13,0-.2,0-.07,0-.15,0-.22,0-.07,0-.14,0-.19,0h-1.35c-.12,0-.25,0-.38,0-.14,0-.27,.01-.39,.02,0-.04-.01-.07-.01-.1,0-.06,.02-.09,.06-.1,.16-.03,.27-.06,.34-.09,.07-.03,.1-.09,.1-.17v-3.15c0-.08-.03-.14-.09-.17-.06-.03-.18-.06-.35-.1-.04,0-.06-.04-.06-.1,0-.02,0-.04,0-.05s0-.03,.01-.05c.18,.01,.33,.02,.44,.03,.12,0,.23,0,.32,0h1.22c.19,0,.35,0,.48-.02,.14-.01,.23-.02,.27-.02,.05,0,.09,.03,.11,.1,.02,.07,.03,.15,.05,.24,.01,.09,.03,.2,.04,.3,.02,.11,.05,.2,.09,.27-.03,.02-.07,.04-.11,.04-.05,0-.09-.02-.11-.06-.05-.11-.1-.2-.14-.28-.04-.08-.1-.14-.16-.19-.06-.05-.13-.09-.22-.11-.08-.02-.19-.04-.31-.04h-.92Z"/><path class="e" d="M98.84,9.97c0,.24-.03,.45-.08,.64-.05,.19-.14,.36-.27,.5-.13,.14-.29,.25-.5,.33s-.46,.11-.77,.11c-.36,0-.64-.04-.86-.13-.22-.09-.39-.21-.5-.35-.12-.14-.2-.31-.24-.5-.04-.19-.06-.38-.06-.57v-2.1c0-.08-.03-.14-.09-.18-.06-.04-.17-.07-.33-.09-.04,0-.06-.04-.06-.11,0-.02,0-.06,.01-.1,.12,0,.25,.02,.38,.02,.13,0,.25,0,.37,0,.11,0,.23,0,.38,0,.14,0,.28-.01,.4-.02,0,.04,.01,.07,.01,.1,0,.07-.02,.1-.06,.11-.16,.02-.27,.05-.34,.09-.07,.04-.1,.1-.1,.18v1.97c0,.43,.08,.76,.26,.99,.17,.23,.46,.34,.87,.34,.23,0,.43-.02,.59-.08,.16-.05,.29-.13,.4-.24,.1-.11,.18-.25,.22-.42,.05-.17,.07-.38,.07-.62v-1.95c0-.08-.03-.14-.09-.18-.06-.04-.17-.07-.33-.09-.04,0-.07-.04-.07-.11,0-.02,0-.06,.01-.1,.12,0,.24,.02,.35,.02s.21,0,.29,0c.1,0,.2,0,.3,0,.1,0,.2-.01,.3-.02,0,.04,.01,.07,.01,.1,0,.02,0,.04-.02,.07-.01,.02-.03,.04-.05,.04-.15,.02-.26,.04-.32,.08-.06,.04-.09,.1-.09,.18v2.08Z"/><path class="e" d="M103.1,10.49v-2.58c0-.09-.03-.16-.1-.19-.07-.04-.18-.07-.33-.09-.05,0-.07-.04-.07-.11,0-.02,0-.06,.01-.1,.1,0,.21,.02,.32,.02,.11,0,.21,0,.3,0s.19,0,.29,0c.1,0,.19-.01,.29-.02,0,.04,.01,.07,.01,.1,0,.07-.02,.1-.06,.11-.14,.02-.24,.05-.29,.09-.05,.04-.08,.1-.08,.18v3.64s-.02,0-.04,.01c-.02,0-.04,0-.05,0-.03,0-.06,0-.08-.02-.02-.01-.05-.04-.09-.09l-2.51-3.31v2.91c0,.08,.03,.14,.09,.17,.06,.03,.17,.06,.33,.09,.04,0,.06,.04,.06,.1,0,.02,0,.06-.01,.1-.1,0-.21-.01-.31-.02-.11,0-.2,0-.29,0-.08,0-.18,0-.29,0-.11,0-.21,.01-.3,.02,0-.04-.01-.07-.01-.1,0-.06,.02-.09,.07-.1,.15-.03,.25-.06,.3-.09,.05-.03,.08-.09,.08-.17v-3.18c0-.07-.02-.12-.07-.15-.05-.03-.15-.06-.29-.08-.05,0-.07-.04-.07-.11,0-.02,0-.04,0-.05,0-.01,0-.03,0-.04,.08,0,.16,.01,.24,.02,.07,0,.14,0,.21,0,.07,0,.14,0,.2,0,.12,0,.2,0,.24,.01,.04,0,.07,.03,.1,.06l2.22,2.96Z"/><path class="e" d="M105.5,11.04c0,.08,.03,.14,.09,.17,.06,.03,.17,.06,.32,.1,.04,0,.06,.04,.06,.1,0,.02,0,.06-.01,.1-.13,0-.25-.01-.38-.02-.13,0-.25,0-.36,0s-.23,0-.37,0c-.13,0-.26,.01-.38,.02,0-.04-.01-.07-.01-.1,0-.06,.02-.09,.06-.1,.16-.03,.26-.06,.32-.09,.06-.03,.09-.09,.09-.17v-3.15c0-.08-.03-.14-.09-.18-.06-.04-.17-.07-.32-.09-.03,0-.04-.02-.05-.04,0-.02-.01-.04-.01-.07s0-.06,.01-.1c.12,0,.25,.02,.39,.02,.13,0,.25,0,.36,0s.22,0,.36,0c.13,0,.26-.01,.39-.02,0,.04,.01,.08,.01,.1,0,.06-.02,.1-.06,.1-.16,.03-.26,.06-.32,.09-.06,.03-.09,.09-.09,.18v3.15Z"/><path class="e" d="M109.68,7.95s.03-.09,.03-.12c0-.06-.03-.1-.09-.13-.06-.03-.15-.05-.28-.07-.05,0-.08-.04-.08-.1,0-.02,0-.04,0-.06,0-.01,0-.03,0-.04,0,0,.03,0,.08,0,.04,0,.1,0,.16,.01,.06,0,.13,0,.21,0,.07,0,.14,0,.21,0,.14,0,.26,0,.37-.01,.11,0,.18-.01,.2-.02,0,.01,0,.03,0,.04,0,.01,0,.02,0,.03,0,.01,0,.02,0,.03,0,.07-.02,.1-.07,.11-.13,0-.23,.03-.29,.06-.06,.03-.11,.09-.14,.17l-1.53,3.67s-.02,0-.03,0c-.01,0-.02,0-.03,0-.05,0-.08-.04-.11-.1l-1.45-3.61c-.03-.06-.06-.1-.12-.13-.06-.03-.16-.05-.31-.07-.04,0-.07-.04-.07-.11,0-.03,0-.07,.01-.1,.12,0,.26,.02,.4,.02,.14,0,.27,0,.38,0s.23,0,.38,0c.15,0,.29-.01,.42-.02,0,.04,.01,.07,.01,.1,0,.06-.03,.1-.07,.1-.24,.02-.37,.09-.37,.2,0,.03,0,.06,.01,.08l1.05,2.69,1.08-2.65Z"/><path class="e" d="M112.01,7.71v1.58h.96c.08,0,.14-.04,.18-.12,.03-.08,.06-.18,.08-.29,.01-.05,.05-.08,.11-.08,.01,0,.03,0,.05,0,.02,0,.04,0,.05,.01,0,.09-.02,.19-.02,.31,0,.11-.01,.22-.01,.3,0,.07,0,.15,0,.26,0,.1,.01,.21,.02,.34-.03,0-.06,.01-.09,.01-.07,0-.11-.03-.12-.08-.02-.12-.05-.21-.08-.29-.03-.08-.09-.12-.18-.12h-.96v1.46c0,.09,.06,.14,.17,.17,.11,.03,.29,.04,.55,.04h.34c.12,0,.22-.02,.31-.05,.09-.03,.17-.08,.24-.14,.07-.06,.13-.13,.18-.21,.05-.08,.1-.17,.15-.27,.01-.03,.04-.04,.09-.04,.02,0,.04,0,.06,.02,.02,.01,.04,.03,.07,.04-.04,.08-.07,.17-.1,.28-.03,.11-.05,.21-.08,.31-.02,.1-.05,.18-.08,.25-.03,.07-.06,.1-.1,.1-.03,0-.08,0-.14,0-.06,0-.13,0-.2,0-.07,0-.15,0-.22,0-.07,0-.14,0-.19,0h-1.35c-.12,0-.25,0-.38,0-.14,0-.27,.01-.39,.02,0-.04-.01-.07-.01-.1,0-.06,.02-.09,.06-.1,.16-.03,.27-.06,.34-.09,.07-.03,.1-.09,.1-.17v-3.15c0-.08-.03-.14-.09-.17-.06-.03-.18-.06-.35-.1-.04,0-.06-.04-.06-.1,0-.02,0-.04,0-.05,0-.01,0-.03,0-.05,.18,.01,.32,.02,.44,.03,.12,0,.23,0,.32,0h1.22c.18,0,.35,0,.48-.02,.14-.01,.23-.02,.27-.02,.05,0,.09,.03,.11,.1,.02,.07,.03,.15,.05,.24,.01,.09,.03,.2,.04,.3,.02,.11,.05,.2,.09,.27-.03,.02-.07,.04-.11,.04-.05,0-.09-.02-.1-.06-.05-.11-.1-.2-.14-.28-.04-.08-.1-.14-.16-.19-.06-.05-.13-.09-.22-.11-.08-.02-.19-.04-.31-.04h-.92Z"/><path class="e" d="M116.3,9.67h-.46v1.36c0,.09,.04,.15,.13,.19,.08,.03,.21,.06,.39,.08,.05,0,.07,.04,.07,.1,0,.03,0,.06-.01,.1-.11,0-.25-.01-.4-.02-.16,0-.31,0-.47,0-.11,0-.23,0-.37,0s-.27,.01-.39,.02c0-.04-.01-.07-.01-.1,0-.06,.02-.09,.07-.1,.16-.03,.27-.06,.33-.09,.06-.03,.1-.1,.1-.18v-3.15c0-.08-.03-.14-.09-.18-.06-.04-.18-.07-.35-.09-.04,0-.06-.04-.06-.11,0-.02,0-.06,.01-.1,.12,.01,.25,.02,.38,.02,.13,0,.26,0,.38,0h.83c.45,0,.78,.1,1.01,.29,.23,.2,.34,.46,.34,.79,0,.09-.01,.19-.05,.28-.03,.1-.08,.2-.14,.29-.06,.1-.15,.18-.25,.26-.1,.08-.22,.15-.36,.2l1.03,1.44c.08,.11,.17,.18,.26,.22,.1,.04,.18,.07,.27,.09,.04,0,.06,.04,.06,.09,0,.03,0,.07-.01,.11-.1,0-.21-.01-.35-.02-.14,0-.26,0-.38,0-.09,0-.18-.04-.26-.11-.09-.07-.17-.17-.25-.28l-.99-1.43Zm-.13-.25c.29,0,.51-.06,.67-.18,.16-.12,.24-.34,.24-.64,0-.13-.02-.24-.05-.35-.03-.11-.08-.2-.16-.28s-.17-.14-.28-.19c-.12-.05-.26-.07-.43-.07h-.31v1.71h.33Z"/><path class="e" d="M121.5,8.43s-.07,.01-.09,.01c-.05,0-.09-.01-.12-.03-.03-.02-.04-.04-.06-.07-.11-.24-.23-.41-.38-.51-.15-.11-.35-.16-.6-.16-.1,0-.19,.01-.28,.04-.09,.03-.17,.07-.23,.12-.07,.05-.12,.12-.16,.19-.04,.07-.06,.16-.06,.25,0,.19,.08,.35,.24,.48,.16,.12,.4,.25,.72,.38,.4,.16,.69,.33,.88,.52,.19,.19,.28,.43,.28,.71,0,.17-.03,.33-.08,.47-.05,.15-.13,.27-.24,.38-.11,.11-.25,.2-.42,.26-.17,.06-.38,.09-.62,.09-.25,0-.49-.03-.7-.08-.21-.06-.38-.12-.53-.21-.01-.17-.03-.34-.06-.5-.02-.16-.05-.32-.09-.48,.03-.01,.06-.02,.11-.02,.05,0,.09,.01,.11,.03,.03,.02,.05,.06,.07,.11,.1,.3,.24,.51,.4,.66,.16,.14,.39,.21,.68,.21,.13,0,.25-.02,.35-.06,.1-.04,.18-.09,.25-.15,.07-.07,.12-.14,.15-.22,.03-.08,.05-.17,.05-.27,0-.21-.07-.38-.22-.51-.15-.12-.36-.24-.63-.33-.18-.07-.34-.13-.48-.21-.14-.07-.27-.15-.37-.25-.1-.09-.18-.2-.24-.33-.06-.13-.08-.28-.08-.45,0-.15,.03-.3,.08-.43,.06-.13,.14-.25,.24-.35,.1-.1,.23-.18,.38-.24,.15-.06,.32-.09,.5-.09s.38,.02,.56,.06c.18,.04,.38,.1,.6,.19,0,.12,.02,.26,.03,.4,.01,.14,.03,.27,.06,.4"/><path class="e" d="M123.41,11.04c0,.08,.03,.14,.09,.17,.06,.03,.16,.06,.32,.1,.04,0,.06,.04,.06,.1,0,.02,0,.06-.01,.1-.13,0-.26-.01-.38-.02-.13,0-.25,0-.37,0s-.23,0-.37,0c-.13,0-.26,.01-.38,.02,0-.04-.01-.07-.01-.1,0-.06,.02-.09,.06-.1,.16-.03,.26-.06,.32-.09,.06-.03,.09-.09,.09-.17v-3.15c0-.08-.03-.14-.09-.18-.06-.04-.16-.07-.32-.09-.03,0-.04-.02-.05-.04,0-.02-.01-.04-.01-.07s0-.06,.01-.1c.12,0,.25,.02,.39,.02,.13,0,.25,0,.36,0s.22,0,.35,0c.13,0,.27-.01,.39-.02,0,.04,.01,.08,.01,.1,0,.06-.02,.1-.06,.1-.16,.03-.26,.06-.32,.09-.06,.03-.09,.09-.09,.18v3.15Z"/><path class="e" d="M126.55,7.71v3.3c0,.09,.04,.16,.12,.2,.08,.04,.21,.07,.4,.09,.05,0,.07,.03,.07,.1,0,.03,0,.06-.01,.1-.13,0-.27-.01-.42-.02-.15,0-.29,0-.44,0s-.29,0-.44,0c-.15,0-.29,.01-.42,.02,0-.04-.01-.08-.01-.1,0-.06,.02-.09,.06-.1,.19-.03,.32-.06,.4-.09,.08-.04,.12-.1,.12-.2v-3.3h-.64c-.12,0-.23,.01-.31,.04-.09,.02-.16,.06-.22,.11-.06,.05-.12,.11-.16,.19s-.09,.17-.14,.27c0,.02-.02,.03-.04,.04-.02,.01-.04,.01-.05,.01-.04,0-.08-.01-.12-.04,.04-.15,.07-.28,.09-.4,.02-.12,.04-.21,.06-.29,.02-.08,.03-.14,.05-.18,.02-.04,.05-.06,.09-.06,.03,0,.07,0,.12,0,.05,0,.11,0,.17,.01h.18c.06,.02,.12,.02,.17,.02h2.07s.11,0,.17,0h.19c.06-.02,.12-.02,.17-.03,.05,0,.09,0,.13,0,.04,0,.07,.02,.09,.06,.02,.04,.04,.1,.05,.18,.02,.08,.03,.17,.05,.29,.02,.11,.05,.24,.1,.38l-.06,.02s-.04,.01-.06,.01c-.02,0-.04,0-.06-.01-.02,0-.04-.02-.04-.04-.04-.1-.09-.19-.14-.27-.04-.08-.1-.14-.16-.19-.06-.05-.13-.09-.22-.11-.08-.02-.19-.04-.31-.04h-.64Z"/><path class="e" d="M129.88,9.69l-1.03-1.86c-.04-.06-.09-.11-.15-.14-.06-.03-.15-.06-.25-.07-.02,0-.04-.02-.05-.04-.01-.02-.02-.04-.02-.07v-.03s0-.02,0-.03c0-.01,0-.02,0-.04,.09,0,.21,.02,.35,.02,.14,0,.28,.01,.41,.01,.05,0,.11,0,.17,0,.07,0,.14,0,.2,0,.07,0,.14,0,.2,0,.06,0,.12,0,.16-.01,0,.02,0,.03,0,.04,0,.01,0,.02,0,.03,0,0,0,.02,0,.02,0,.03,0,.05-.02,.07-.01,.02-.03,.03-.05,.04-.12,.02-.2,.04-.25,.06-.05,.02-.07,.06-.07,.1,0,.03,.01,.07,.04,.12l.77,1.38,.72-1.29c.04-.07,.06-.13,.06-.17,0-.05-.03-.1-.08-.12s-.14-.05-.26-.07c-.05,0-.07-.04-.07-.11,0-.02,0-.04,0-.06,0-.01,0-.03,0-.04,.09,0,.2,.02,.32,.02,.12,0,.23,.01,.34,.01,.1,0,.2,0,.3-.01,.11,0,.21-.01,.31-.02,0,.02,0,.03,0,.04,0,.01,0,.02,0,.03,0,0,0,.02,0,.02,0,.06-.02,.09-.07,.11-.14,.02-.25,.05-.31,.08-.06,.03-.11,.08-.15,.16l-1,1.78v1.39c0,.09,.03,.15,.1,.19,.07,.04,.18,.06,.34,.09,.05,0,.07,.04,.07,.1,0,0,0,.02,0,.03,0,.01,0,.02,0,.03,0,.02,0,.03,0,.04-.1,0-.2,0-.29-.01-.08,0-.17,0-.26-.01-.09,0-.18,0-.24,0s-.15,0-.24,0c-.09,0-.18,0-.26,.01-.1,0-.19,0-.29,.01,0,0,0-.02,0-.04,0,0,0-.02,0-.03v-.03c0-.06,.02-.09,.06-.1,.16-.03,.28-.07,.35-.1,.07-.03,.1-.09,.1-.18v-1.33Z"/><path class="d" d="M47.55,18.67c-.2,.04-.35,.06-.45,.06-.26,0-.46-.05-.58-.15-.12-.1-.21-.21-.27-.33-.53-1.15-1.15-1.99-1.88-2.51-.73-.52-1.72-.79-2.97-.79-.49,0-.94,.07-1.38,.2-.44,.13-.81,.32-1.14,.58-.32,.25-.58,.56-.77,.92-.19,.36-.29,.77-.29,1.21,0,.95,.4,1.73,1.2,2.33,.8,.61,1.97,1.22,3.53,1.85,1.94,.77,3.37,1.62,4.29,2.56,.92,.94,1.38,2.1,1.38,3.47,0,.83-.13,1.6-.38,2.32-.25,.72-.65,1.34-1.18,1.88-.53,.54-1.23,.95-2.08,1.26-.85,.3-1.87,.45-3.06,.45-1.25,0-2.39-.13-3.41-.39-1.02-.26-1.88-.61-2.59-1.03-.06-.85-.15-1.67-.27-2.45-.12-.79-.26-1.58-.42-2.36,.14-.06,.31-.09,.52-.09,.24,0,.43,.06,.56,.17,.13,.11,.25,.29,.35,.53,.51,1.45,1.16,2.52,1.95,3.21,.8,.69,1.91,1.03,3.35,1.03,.65,0,1.21-.09,1.7-.27,.49-.18,.89-.43,1.21-.76,.32-.32,.56-.69,.73-1.09,.16-.4,.24-.84,.24-1.3,0-1.05-.36-1.88-1.08-2.48-.72-.6-1.74-1.15-3.08-1.64-.87-.32-1.66-.66-2.36-1.01-.71-.35-1.31-.76-1.82-1.23-.5-.46-.89-1-1.17-1.62-.27-.62-.41-1.35-.41-2.2,0-.75,.14-1.45,.41-2.11,.27-.65,.67-1.23,1.18-1.71,.52-.49,1.14-.87,1.86-1.15,.73-.28,1.54-.42,2.45-.42s1.86,.09,2.73,.27c.87,.18,1.85,.48,2.94,.91,.04,.61,.1,1.26,.17,1.95,.07,.7,.17,1.35,.29,1.95"/><path class="d" d="M54.71,29.11c.09-.09,.16-.14,.23-.16,.06-.02,.11-.03,.15-.03,.16,0,.3,.12,.42,.35-.46,.51-.96,.93-1.49,1.25-.53,.32-1.1,.48-1.7,.48-.35,0-.69-.04-1.01-.12-.32-.08-.59-.23-.83-.46-.23-.23-.41-.55-.55-.95-.13-.4-.2-.92-.2-1.56v-7.34h-1.6v-.29c0-.12,.02-.24,.07-.35,.04-.11,.14-.16,.28-.16,.48,0,.87-.12,1.17-.37,.3-.25,.55-.57,.74-.96,.21-.43,.4-.83,.56-1.2,.16-.37,.34-.56,.53-.56h.48v2.77h3.11c0,.37-.04,.65-.12,.84-.08,.19-.22,.28-.44,.28h-2.56v6.6c0,.57,.03,1.02,.08,1.37,.05,.35,.13,.61,.24,.8,.11,.19,.23,.31,.37,.36,.14,.06,.3,.08,.48,.08,.3,0,.58-.07,.84-.2,.26-.13,.5-.29,.73-.47"/><path class="d" d="M66.68,29.96c.2,0,.3,.19,.32,.56-.46,.32-1.05,.48-1.76,.48-.39,0-.73-.06-1.02-.17-.29-.12-.53-.27-.73-.47-.2-.19-.35-.42-.46-.66-.11-.25-.18-.51-.22-.77-.44,.8-.97,1.34-1.58,1.64-.61,.29-1.32,.44-2.11,.44-.36,0-.73-.03-1.13-.09-.4-.06-.78-.19-1.13-.38-.35-.2-.65-.47-.88-.83-.23-.35-.35-.83-.35-1.41,0-.66,.16-1.21,.47-1.66,.31-.45,.71-.82,1.2-1.12,.49-.29,1.02-.53,1.6-.7,.58-.18,1.13-.33,1.66-.45,.3-.05,.58-.11,.84-.17,.26-.06,.48-.13,.68-.2,.25-.07,.4-.17,.47-.29,.06-.12,.09-.36,.09-.72,0-.83-.16-1.52-.48-2.06-.32-.54-.89-.81-1.7-.81-.3,0-.56,.04-.77,.11-.21,.07-.39,.18-.53,.33-.14,.15-.27,.35-.37,.6-.11,.25-.21,.54-.32,.88-.05,.2-.17,.34-.36,.43-.19,.09-.5,.2-.94,.32-.11,.04-.24,.07-.4,.11-.16,.04-.29,.05-.4,.05-.18,0-.27-.19-.27-.56s.15-.78,.45-1.17c.3-.39,.69-.74,1.16-1.04,.47-.3,.98-.55,1.53-.73,.55-.19,1.07-.28,1.57-.28,.62,0,1.18,.05,1.68,.16,.5,.11,.93,.3,1.29,.58,.36,.28,.63,.67,.82,1.14,.19,.48,.28,1.1,.28,1.86v4.58c0,.62,.02,1.07,.07,1.34,.04,.28,.11,.49,.2,.65,.12,.25,.26,.41,.41,.49,.15,.08,.31,.12,.46,.12,.2,0,.33-.02,.41-.05,.08-.04,.16-.06,.25-.06m-4.04-5.19l-.86,.13c-.46,.09-.91,.2-1.35,.32-.44,.12-.83,.3-1.17,.52-.34,.22-.61,.5-.82,.84-.21,.34-.31,.75-.31,1.25,0,.67,.17,1.19,.52,1.54,.35,.35,.78,.53,1.3,.53,.34,0,.67-.07,1-.23,.33-.15,.62-.36,.86-.64,.24-.27,.44-.6,.59-.97,.15-.37,.23-.78,.23-1.22v-2.08Z"/><path class="d" d="M78.76,29.16c0,.27,.16,.47,.48,.6,.32,.13,.67,.24,1.06,.31,.16,.04,.24,.14,.24,.32,0,.11-.02,.25-.05,.43-.46-.04-.91-.07-1.36-.09-.44-.03-.92-.04-1.44-.04-.48,0-.95,.01-1.42,.04-.47,.03-.94,.06-1.4,.09-.04-.18-.05-.32-.05-.43,0-.18,.08-.28,.24-.32,.37-.07,.71-.17,1.01-.31,.3-.13,.45-.33,.45-.6v-5.22c0-.44-.03-.85-.08-1.22-.05-.37-.15-.7-.31-.97-.15-.28-.35-.49-.61-.64-.26-.15-.59-.23-.99-.23-.44,0-.87,.08-1.3,.23-.42,.15-.8,.37-1.12,.67-.33,.29-.59,.65-.78,1.08-.19,.43-.29,.91-.29,1.46v4.84c0,.27,.16,.47,.47,.6,.31,.13,.64,.24,1,.31,.16,.04,.24,.14,.24,.32,0,.11-.02,.25-.05,.43-.46-.04-.91-.07-1.36-.09-.44-.03-.92-.04-1.42-.04s-1.01,.01-1.48,.04c-.46,.03-.92,.06-1.36,.09-.04-.18-.05-.32-.05-.43,0-.18,.08-.28,.24-.32,.39-.07,.75-.17,1.07-.31,.32-.13,.48-.34,.48-.62v-7.24c0-.53-.09-.91-.28-1.14-.19-.23-.59-.37-1.21-.42-.23-.03-.35-.16-.35-.37,0-.09,.02-.2,.05-.35,.23,0,.55-.01,.97-.04,.42-.03,.76-.06,1.03-.09,.41-.07,.78-.15,1.1-.23,.32-.08,.56-.12,.7-.12,.25,0,.38,.13,.38,.4,0,.25-.03,.55-.08,.89-.05,.34-.08,.8-.08,1.37,.76-.85,1.49-1.51,2.19-1.97,.7-.46,1.46-.69,2.29-.69,1.08,0,1.89,.32,2.43,.94,.54,.63,.81,1.5,.81,2.62v6.47Z"/><path class="d" d="M82.84,30.68c-.31,0-.61,0-.93,.01-.31,0-.6,.02-.87,.04-.27,.02-.5,.04-.69,.05-.19,.02-.32,.03-.37,.03,0-.02,0-.08-.03-.19-.02-.11-.03-.19-.03-.24,0-.18,.08-.28,.24-.32,.46-.09,.84-.19,1.12-.32,.28-.12,.43-.33,.43-.61v-7.24c0-.53-.09-.91-.28-1.15-.19-.23-.59-.37-1.21-.43-.23-.03-.35-.16-.35-.37,0-.09,.02-.2,.05-.35,.23,0,.55-.01,.97-.04,.42-.03,.76-.06,1.03-.09,.41-.07,.78-.15,1.1-.23,.32-.08,.56-.12,.7-.12,.25,0,.38,.13,.38,.4,0,.25-.03,.55-.08,.89-.05,.35-.08,.8-.08,1.37v7.34c0,.28,.14,.49,.41,.61,.28,.12,.66,.23,1.16,.32,.14,.04,.21,.14,.21,.32,0,.05,0,.13-.01,.24-.01,.11-.02,.17-.04,.19-.05,0-.17-.01-.36-.03-.19-.02-.41-.04-.68-.05-.27-.02-.56-.03-.87-.04-.31,0-.62-.01-.93-.01m-1.56-15.99c0-.43,.15-.79,.44-1.1,.29-.31,.66-.47,1.1-.47s.78,.16,1.07,.47c.28,.31,.42,.68,.42,1.1,0,.46-.14,.83-.42,1.12-.28,.28-.64,.43-1.07,.43s-.81-.14-1.1-.43-.44-.66-.44-1.12"/><path class="d" d="M93.39,22.41c-.14,0-.24-.03-.31-.09-.06-.06-.1-.13-.12-.2-.12-.73-.41-1.25-.86-1.56-.45-.31-1.02-.47-1.69-.47-.51,0-.97,.15-1.37,.44-.4,.29-.6,.7-.6,1.21,0,.46,.18,.85,.54,1.16,.36,.31,1.03,.62,1.98,.92,.51,.16,.99,.34,1.42,.53,.43,.2,.81,.43,1.12,.7,.31,.28,.55,.61,.73,1.01,.18,.4,.27,.88,.27,1.42,0,.46-.08,.9-.25,1.33-.17,.43-.43,.8-.77,1.12-.35,.32-.78,.58-1.3,.77-.52,.2-1.15,.29-1.88,.29-.57,0-1.2-.07-1.9-.2-.7-.13-1.33-.36-1.9-.68-.04-.46-.07-.95-.09-1.45-.03-.5-.04-1.02-.04-1.53h.27c.18,0,.33,.03,.45,.09,.12,.06,.2,.16,.21,.31,.07,.75,.36,1.34,.86,1.8,.51,.45,1.21,.68,2.12,.68,.73,0,1.29-.16,1.68-.49,.39-.33,.58-.78,.58-1.35s-.21-1.03-.64-1.34c-.43-.31-1.06-.59-1.89-.84-1.05-.32-1.87-.74-2.46-1.25-.59-.51-.89-1.27-.89-2.26,0-.46,.09-.9,.27-1.3,.18-.41,.42-.76,.74-1.07,.32-.3,.71-.54,1.17-.72,.46-.18,.98-.27,1.54-.27,.71,0,1.38,.09,2.01,.28,.63,.19,1.12,.39,1.48,.6,.02,.14,.04,.32,.05,.52,.02,.2,.03,.42,.04,.64,0,.22,.02,.45,.03,.67,0,.22,.01,.42,.01,.6l-.61-.03Z"/><path class="d" d="M100.71,30.8c-.46-.03-.93-.06-1.41-.08-.48-.03-.96-.04-1.45-.04s-.98,.01-1.49,.04c-.51,.02-.98,.05-1.43,.08-.04-.16-.05-.29-.05-.39,0-.16,.08-.26,.24-.29,.39-.07,.75-.16,1.09-.28,.34-.12,.51-.32,.51-.58v-13.17c0-.52-.11-.88-.33-1.06-.22-.19-.64-.31-1.26-.36-.23-.03-.35-.15-.35-.34,0-.1,.02-.21,.05-.34,.23,0,.55-.01,.96-.04,.41-.02,.78-.05,1.12-.08,.41-.05,.78-.11,1.1-.2,.32-.08,.56-.12,.7-.12,.16,0,.27,.03,.32,.1,.05,.07,.08,.16,.08,.27,0,.28-.03,.6-.08,.97-.05,.37-.08,.8-.08,1.28v13.1c0,.26,.16,.45,.49,.58,.33,.12,.7,.22,1.1,.28,.14,.03,.21,.13,.21,.29,0,.1-.02,.23-.05,.39"/><path class="d" d="M111.89,29.96c.19,0,.3,.19,.32,.56-.46,.32-1.05,.48-1.76,.48-.39,0-.73-.06-1.02-.17-.29-.12-.53-.27-.73-.47-.2-.19-.35-.42-.46-.66-.11-.25-.18-.51-.22-.77-.44,.8-.97,1.34-1.58,1.64-.61,.29-1.32,.44-2.12,.44-.36,0-.73-.03-1.13-.09-.4-.06-.78-.19-1.13-.38-.36-.2-.65-.47-.88-.83-.23-.35-.35-.83-.35-1.41,0-.66,.16-1.21,.47-1.66,.31-.45,.71-.82,1.2-1.12,.49-.29,1.02-.53,1.6-.7,.58-.18,1.13-.33,1.66-.45,.3-.05,.58-.11,.84-.17,.26-.06,.48-.13,.68-.2,.25-.07,.4-.17,.47-.29,.06-.12,.09-.36,.09-.72,0-.83-.16-1.52-.48-2.06-.32-.54-.89-.81-1.7-.81-.3,0-.56,.04-.77,.11-.21,.07-.39,.18-.53,.33-.14,.15-.27,.35-.37,.6-.11,.25-.21,.54-.32,.88-.06,.2-.17,.34-.36,.43-.19,.09-.5,.2-.94,.32-.11,.04-.24,.07-.4,.11-.16,.04-.29,.05-.4,.05-.18,0-.27-.19-.27-.56s.15-.78,.45-1.17c.3-.39,.69-.74,1.16-1.04,.47-.3,.98-.55,1.53-.73,.55-.19,1.07-.28,1.57-.28,.62,0,1.18,.05,1.68,.16,.5,.11,.93,.3,1.29,.58,.36,.28,.63,.67,.82,1.14,.19,.48,.28,1.1,.28,1.86v4.58c0,.62,.02,1.07,.07,1.34,.04,.28,.11,.49,.2,.65,.12,.25,.26,.41,.41,.49,.15,.08,.31,.12,.46,.12,.19,0,.33-.02,.41-.05,.08-.04,.16-.06,.25-.06m-4.04-5.19l-.86,.13c-.46,.09-.92,.2-1.35,.32-.44,.12-.82,.3-1.16,.52-.34,.22-.61,.5-.82,.84-.21,.34-.31,.75-.31,1.25,0,.67,.17,1.19,.52,1.54,.35,.35,.78,.53,1.3,.53,.34,0,.67-.07,1-.23,.33-.15,.62-.36,.86-.64,.24-.27,.44-.6,.59-.97,.15-.37,.23-.78,.23-1.22v-2.08Z"/><path class="d" d="M112.68,21.9c0-.58-.08-.98-.25-1.18-.17-.2-.56-.33-1.16-.39-.23-.03-.35-.15-.35-.35,0-.11,.02-.23,.05-.37,.23,0,.54-.01,.92-.04,.38-.03,.7-.07,.97-.12,.39-.05,.73-.12,1.02-.2,.29-.08,.51-.12,.65-.12,.25,0,.37,.13,.37,.4v6.65c0,.44,.03,.85,.08,1.22,.05,.37,.15,.7,.29,.97,.14,.27,.35,.49,.61,.64s.6,.23,1.01,.23c.44,0,.88-.08,1.3-.23,.43-.15,.8-.37,1.13-.67,.33-.29,.59-.65,.78-1.08,.2-.43,.29-.92,.29-1.49v-3.89c0-.57-.09-.96-.25-1.17-.17-.21-.56-.35-1.18-.4-.23-.03-.35-.15-.35-.35,0-.11,.02-.23,.05-.37,.23,0,.54-.01,.92-.04,.38-.03,.71-.07,1-.12,.39-.05,.74-.12,1.02-.2,.29-.08,.5-.12,.65-.12,.25,0,.38,.13,.38,.4v8.65c0,.3,.02,.55,.05,.73,.03,.19,.11,.34,.21,.45,.11,.12,.25,.2,.44,.27,.19,.06,.43,.1,.73,.12,.23,.04,.35,.15,.35,.35,0,.11-.02,.23-.05,.37-.34,0-.69,.03-1.07,.08-.37,.05-.73,.11-1.07,.16-.34,.05-.64,.11-.9,.16-.26,.05-.44,.08-.55,.08-.25,0-.38-.13-.38-.4v-2.21c-.05,.05-.2,.22-.45,.51-.25,.28-.57,.59-.97,.91-.4,.32-.86,.61-1.38,.86-.52,.26-1.09,.39-1.69,.39-1.08,0-1.9-.31-2.44-.93-.54-.62-.81-1.5-.81-2.63v-5.53Z"/><path class="d" d="M132.24,22.41c-.14,0-.24-.03-.31-.09-.06-.06-.1-.13-.12-.2-.12-.73-.41-1.25-.87-1.56-.45-.31-1.01-.47-1.69-.47-.51,0-.97,.15-1.37,.44-.4,.29-.6,.7-.6,1.21,0,.46,.18,.85,.54,1.16,.36,.31,1.02,.62,1.98,.92,.51,.16,.99,.34,1.42,.53,.43,.2,.81,.43,1.12,.7,.31,.28,.55,.61,.73,1.01,.18,.4,.27,.88,.27,1.42,0,.46-.08,.9-.25,1.33-.17,.43-.43,.8-.77,1.12-.35,.32-.78,.58-1.3,.77-.52,.2-1.15,.29-1.88,.29-.57,0-1.2-.07-1.9-.2-.7-.13-1.34-.36-1.9-.68-.04-.46-.07-.95-.09-1.45-.03-.5-.04-1.02-.04-1.53h.27c.18,0,.33,.03,.45,.09,.12,.06,.2,.16,.21,.31,.07,.75,.36,1.34,.86,1.8,.51,.45,1.21,.68,2.12,.68,.73,0,1.29-.16,1.68-.49s.58-.78,.58-1.35-.21-1.03-.64-1.34c-.43-.31-1.05-.59-1.89-.84-1.05-.32-1.87-.74-2.46-1.25-.59-.51-.89-1.27-.89-2.26,0-.46,.09-.9,.27-1.3,.18-.41,.43-.76,.75-1.07,.32-.3,.71-.54,1.17-.72,.46-.18,.98-.27,1.54-.27,.71,0,1.38,.09,2.01,.28,.63,.19,1.12,.39,1.48,.6,.02,.14,.04,.32,.05,.52,.02,.2,.03,.42,.04,.64,0,.22,.02,.45,.03,.67,0,.22,.01,.42,.01,.6l-.61-.03Z"/><path class="d" d="M28.4,5L13.42,0V2.83L.17,7.25c-.45,5.54-.23,13.97,3.51,22.12,4.04,8.77,11.46,12.63,11.46,12.63v-3.33c2.44-1.69,6.91-5.42,9.74-11.55,3.75-8.15,3.96-16.57,3.52-22.12Zm-9.86,24.11c-1.35,.92-3.26,1.38-5.73,1.38-1.68,0-3.85-.3-6.28-.89v-5.94h.46c.02,1.7,.69,2.96,2.02,3.78,1.3,.8,2.88,1.21,4.74,1.21,1.48,0,2.69-.31,3.64-.94,.97-.63,1.36-1.35,1.39-2.24,.02-.93-.32-1.7-1.08-2.24-.79-.59-2.35-1.28-4.68-2.09-2.17-.75-3.68-1.35-4.55-1.82-.92-.51-1.69-1.24-2.3-2.2-.62-.98-.92-2.07-.92-3.27,0-1.83,.67-3.27,2.02-4.3-.5,.69-.75,1.65-.75,2.9,0,1.17,.27,2.21,.81,3.12,.57,.92,1.27,1.66,2.11,2.2,.85,.56,2.23,1.15,4.15,1.78,2.88,.95,4.58,1.73,5.53,2.41,.91,.65,1.58,1.89,1.58,3.34,0,1.67-.83,2.87-2.17,3.82Zm2.4-1.27c.5-.69,.75-1.65,.75-2.9,0-1.17-.27-2.21-.81-3.12-.57-.92-1.27-1.65-2.11-2.2-.85-.56-2.23-1.15-4.15-1.78-2.88-.95-4.58-1.73-5.54-2.42-.91-.65-1.58-1.89-1.58-3.34,0-1.67,.83-2.87,2.17-3.82,1.35-.92,3.26-1.39,5.73-1.39,1.68,0,3.85,.3,6.28,.89v5.94h-.46c-.02-1.7-.69-2.96-2.02-3.78-1.3-.8-2.88-1.21-4.74-1.21-1.48,0-2.69,.31-3.65,.94-.97,.63-1.36,1.35-1.39,2.24-.02,.93,.32,1.7,1.08,2.24,.79,.59,2.35,1.28,4.68,2.09,2.17,.74,3.68,1.35,4.55,1.82,.92,.51,1.69,1.24,2.31,2.2,.61,.98,.92,2.07,.92,3.27,0,1.83-.67,3.27-2.02,4.3Z"/></g></g></g></svg>