<?xml version="1.0" encoding="UTF-8"?><svg xmlns="http://www.w3.org/2000/svg" viewBox="0 0 233 91.29"><defs><style>.d{fill:#231f20;}</style></defs><g id="a"/><g id="b"><g id="c"><g><path class="d" d="M66.29,90.36h-5.64c-2.42-6.41-4.83-12.78-7.45-19.74-2.68,6.9-5.14,13.24-7.65,19.68h-5.61c-4.14-11.46-8.35-23.08-12.63-34.91h8.69l7.02,19.63c2.64-6.87,5.1-13.25,7.57-19.66h5.31c2.42,6.34,4.85,12.71,7.42,19.46l6.99-19.43h8.75c-4.29,11.73-8.5,23.27-12.78,34.96Z"/><path class="d" d="M149.31,90.33h-8.72c0-1.11,.02-2.15,0-3.19-.14-6.54-.24-13.08-.48-19.62-.08-2.24-1.26-4.03-3.51-4.64-2.35-.64-4.62-.32-6.5,1.46-2.2,2.09-2.92,4.78-2.96,7.67-.07,5.14-.03,10.29-.04,15.43,0,.89,0,1.79,0,2.84h-8.74V41.94h8.69v16.26c2.65-1.22,4.99-2.77,7.56-3.38,7.63-1.8,14.05,2.54,14.57,10.4,.55,8.24,.12,16.55,.12,25.11Z"/><path class="d" d="M13.25,81.69h15.67v8.63H0c5.6-12.77,11.09-25.31,16.74-38.21H1.48v-8.99H30.09c-5.62,12.86-11.13,25.48-16.84,38.57Z"/><path class="d" d="M202.11,55.38h8.54c.09,1.06,.18,2.03,.23,2.6,2.78-1.11,5.54-2.74,8.5-3.3,7.36-1.37,13.39,3.72,13.53,11.18,.14,7.63,.06,15.27,.06,22.9,0,.48-.11,.95-.18,1.54h-8.48c0-2.02,.03-3.91,0-5.8-.11-5.39-.18-10.78-.4-16.16-.12-2.92-1.65-4.98-3.78-5.58-2.62-.74-5.64,.06-7.06,2.43-1.07,1.77-1.97,3.94-2.05,5.96-.26,6.28-.1,12.59-.1,19.08h-8.81V55.38Z"/><path class="d" d="M152.27,41.92h8.64v48.38h-8.64V41.92Z"/><path class="d" d="M36.41,29.84l3.39-2.07c.93,1.21,1.69,2.39,2.64,3.4,2.63,2.79,6.69,3.01,9.37,.6,2.6-2.34,2.65-5.83-.3-8.75-2.7-2.67-5.78-4.95-8.69-7.41-3.06-2.58-4.41-5.82-3.33-9.74,1.32-4.75,6.97-7.29,11.67-5.05,2.2,1.05,3.98,2.97,6.21,4.7l-3.15,2.46c-.97-.96-1.84-1.95-2.83-2.78-2.31-1.93-5.65-1.83-7.43,.15-1.72,1.91-1.56,4.73,.73,6.88,2.11,1.98,4.54,3.6,6.77,5.46,1.27,1.06,2.54,2.16,3.59,3.43,3.31,3.99,3.41,8.69,.39,12.24-3.19,3.74-8.71,4.96-12.83,2.34-2.26-1.44-3.99-3.72-6.2-5.85Z"/><path class="d" d="M80.19,10.08h3.51c.05,.93,.15,1.89,.14,2.84-.03,4.48,.04,8.96-.19,13.43-.31,6.08-4.2,10.04-9.94,10.42-6.74,.44-11.16-2.69-12.33-8.91-.33-1.78-.31-3.63-.33-5.45-.05-4.05-.01-8.09-.01-12.28h3.52c0,2.42-.01,4.8,0,7.18,.02,2.99,0,5.98,.13,8.96,.2,4.5,3.15,7.1,7.89,7.09,4.51-.01,7.49-2.7,7.58-7.1,.11-5.29,.03-10.59,.03-16.18Z"/><path class="d" d="M105.35,55.42c-.09,1.1-.17,2.07-.25,3.06-10.06-5.64-17.36-5.11-22.97,1.65-5.78,6.96-5.91,18.12-.27,24.87,2.52,3.02,5.57,5.27,9.5,5.99,5.09,.94,9.69-.27,13.7-3.99,.13,1.34,.22,2.29,.32,3.31h8.58V55.42h-8.62Zm-9.28,27.69c-5.48-.01-9.41-4.32-9.41-10.29,0-6,3.89-10.16,9.5-10.14,5.71,.02,9.48,4.03,9.49,10.11,.01,6.19-3.83,10.33-9.57,10.32Z"/><path class="d" d="M185.16,54.79c-10.39-1.94-19.41,3.52-21.91,13.25-2.46,9.59,2.38,19.11,11.27,22.14,7.9,2.69,18.99,.53,22.37-6.81-2.31-1.09-4.63-2.17-6.9-3.24-8.49,5.63-17.51,3.46-18.38-4.6h27.7c1.04-10.56-4.88-19.02-14.16-20.75Zm-12.94,13.56c.85-3.61,3.8-5.93,7.88-6.26,5.07-.41,8.53,1.6,10.4,6.26h-18.28Z"/><path class="d" d="M96.68,32.88c-3.8-1.55-6.24-5.52-5.7-9.62h22.98c-.14-7.65-5.27-13.37-12.18-13.83-7.38-.49-13.48,4.26-14.58,11.38-1.07,6.98,3.18,13.94,9.48,15.49,7.19,1.78,13.99-1.34,16.19-7.51-.77-.42-1.57-.85-2.47-1.34-4.33,5.64-8.88,7.4-13.72,5.43Zm3.77-20.1c4.92,0,8.38,2.65,9.53,7.47h-18.71c1.05-4.75,4.44-7.47,9.18-7.47Z"/></g></g></g></svg>